<?xml version="1.0" encoding="utf-8"?>
<!-- Generator: Adobe Illustrator 24.1.2, SVG Export Plug-In . SVG Version: 6.00 Build 0)  -->
<svg version="1.1" id="Layer_1" xmlns="http://www.w3.org/2000/svg" xmlns:xlink="http://www.w3.org/1999/xlink" x="0px" y="0px"
	 viewBox="0 0 500 500" style="enable-background:new 0 0 500 500;" xml:space="preserve">
<style type="text/css">
	.st0{fill:#F5F5F5;}
	.st1{fill:#E0E0E0;}
	.st2{fill:#EBEBEB;}
	.st3{fill:#FAFAFA;}
	.st4{opacity:0.2;}
	.st5{fill:#FFFFFF;}
	.st6{fill:#92E3A9;}
	.st7{fill:#263238;}
	.st8{fill:#455A64;}
	.st9{opacity:0.3;}
	.st10{fill:#FFBE9D;}
	.st11{opacity:0.4;}
	.st12{fill:#EB996E;}
</style>
<g>
	<g id="freepik--background-complete--inject-67">
		<polygon class="st0" points="227,453.6 227.6,421.1 245.3,421.1 244.9,453.6 		"/>
		<path class="st1" d="M236.9,426.5c4.5,0,8.2,0.2,8.2,0.4s-3.7,0.4-8.2,0.4s-8.2-0.2-8.2-0.4C228.7,426.7,232.4,426.5,236.9,426.5z
			"/>
		<path class="st1" d="M236.9,431.5c4.5,0,8.2,0.2,8.2,0.4s-3.7,0.4-8.2,0.4s-8.2-0.2-8.2-0.4S232.4,431.5,236.9,431.5z"/>
		<path class="st1" d="M236.9,436.5c4.5,0,8.2,0.2,8.2,0.4s-3.7,0.4-8.2,0.4s-8.2-0.2-8.2-0.4C228.7,436.7,232.4,436.5,236.9,436.5z
			"/>
		<path class="st1" d="M236.9,441.6c4.5,0,8.2,0.2,8.2,0.4s-3.7,0.4-8.2,0.4s-8.2-0.2-8.2-0.4S232.4,441.6,236.9,441.6z"/>
		<path class="st1" d="M236.9,446.6c4.5,0,8.2,0.2,8.2,0.4s-3.7,0.4-8.2,0.4s-8.2-0.2-8.2-0.4C228.7,446.7,232.4,446.6,236.9,446.6z
			"/>
		<path class="st2" d="M246.2,422.3h-12.8l0,0c-3.1,0-5.6,2.5-5.6,5.6v19.5l0,0c0,3.1,2.5,5.6,5.6,5.6h11.9v2.3H50.3
			c-2.1-12.5-2.4-24.4,0-35.1h195.9V422.3z"/>
		<path class="st3" d="M200.6,438.3c0,0.1,0.1,0.2,0.1,0.2c0,0.5-0.3,0.7-0.8,0.8c-0.1,0-0.8,0-2.4,0c0.4,1.1,0.9,2.1,1.7,3
			c0.4,0.5,0.9,0.9,1.6,1c0.8,0,1.5-0.5,1.7-1.3c0.4-0.9,0.6-1.9,0.6-2.9c0-1.3-0.3-2.5-0.8-3.7c-0.3-1-1-1.9-1.8-2.6
			c-0.3-0.2-0.7-0.4-1.1-0.4c-0.7,0-1.2,0.4-1.6,0.9c-0.2,0.2-0.3,0.5-0.4,0.8v0.1c-0.1,0.2-0.2,0.4-0.4,0.4c-0.1,0-0.1,0-0.2,0
			c-0.3,0-0.5-0.1-0.6-0.4c-0.1-0.1-0.1-0.2-0.1-0.4c0-0.1,0-0.2,0.1-0.3c0.3-1,1-1.9,1.9-2.4c0.4-0.2,0.8-0.3,1.2-0.3
			c1.2,0.1,2.2,0.6,2.9,1.6c0.9,1.1,1.6,2.4,2,3.8c0.2,0.9,0.4,1.9,0.4,2.8c0,1.4-0.3,2.7-1,3.9c-0.5,0.8-1.3,1.4-2.2,1.6H201
			c-1.1-0.1-2.1-0.6-2.8-1.4c-1-1.1-1.7-2.3-2-3.7c-0.1-0.3-0.1-0.6-0.2-0.8c0-0.1,0-0.1,0-0.2c0-0.3,0.1-0.5,0.4-0.6
			c0.1-0.1,0.2-0.1,0.4-0.1h3.3C200.3,437.8,200.5,438,200.6,438.3z"/>
		<path class="st3" d="M189.4,431.1c0.3,0,0.6,0.2,0.7,0.5c0.6,1.1,2.2,4.7,5,10.9c0.3,0.6,0.5,1,0.6,1.3c0,0.1,0,0.1,0,0.2
			c0,0.2-0.1,0.5-0.3,0.6c-0.1,0.1-0.2,0.1-0.4,0.1c-0.2,0-0.5-0.1-0.6-0.3l-0.1-0.1l-1.9-4h-4l-0.8,4c-0.1,0.3-0.3,0.4-0.5,0.5
			h-0.1c-0.2,0-0.5-0.1-0.6-0.4c-0.1-0.1-0.1-0.2-0.1-0.4c0-0.1,0-0.1,0-0.2c1.4-7.6,2.2-11.7,2.3-12.1c0-0.1,0.1-0.2,0.1-0.2
			C188.9,431.2,189.2,431.1,189.4,431.1z M188.8,438.7h3.1l-2.2-4.6L188.8,438.7z"/>
		<path class="st3" d="M177.2,444.2c0-0.1,0-0.2,0-0.2c0-0.3,0.2-0.6,0.5-0.7c0.1,0,0.3-0.1,0.4-0.1h5c0-0.3-0.4-3-1.1-8.2
			c-0.2-1.7-0.4-2.8-0.4-3.3c0-0.3,0.1-0.5,0.4-0.6c0.1-0.1,0.2-0.1,0.3-0.1c0.3,0,0.5,0.2,0.6,0.4c0,0.1,0,0.2,0,0.3
			c1.1,7.8,1.6,11.8,1.6,12.1l0,0c0,0.3-0.1,0.5-0.3,0.7c-0.1,0.1-0.2,0.1-0.4,0.1h-5.9C177.6,444.7,177.3,444.5,177.2,444.2z"/>
		<path class="st3" d="M170.5,431.1c0.3,0,0.6,0.2,0.7,0.5c0.5,1.1,2.2,4.7,5,10.9c0.3,0.6,0.5,1,0.6,1.3c0,0.1,0,0.1,0,0.2
			c0,0.2-0.1,0.5-0.3,0.6c-0.1,0.1-0.2,0.1-0.4,0.1c-0.2,0-0.5-0.1-0.6-0.3c0,0,0-0.1-0.1-0.1l-1.9-4h-4l-0.8,4
			c-0.1,0.3-0.3,0.4-0.5,0.5h-0.1c-0.2,0-0.5-0.1-0.6-0.4c-0.1-0.1-0.1-0.2-0.1-0.4c0-0.1,0-0.1,0-0.2c1.4-7.6,2.2-11.7,2.3-12.1
			c0-0.1,0.1-0.2,0.1-0.2C169.9,431.2,170.2,431,170.5,431.1z M169.8,438.7h3.1l-2.2-4.6L169.8,438.7z"/>
		<path class="st3" d="M155.8,432.1c0-0.1-0.1-0.2-0.1-0.3c0-0.3,0.1-0.5,0.3-0.6c0.1-0.1,0.2-0.1,0.3-0.1c0.3,0,0.5,0.1,0.6,0.3
			l3.9,5.4l2-5.3c0.1-0.2,0.4-0.4,0.6-0.4c0.2,0,0.5,0.1,0.6,0.4c0.1,0.1,0.1,0.2,0.1,0.4c0,0.1-0.6,1.9-1.9,5.2
			c-0.1,0.3-0.3,0.7-0.4,1.1c1.4,2,2.6,3.7,3.7,5.2c0.2,0.2,0.3,0.4,0.4,0.6v0.1c0,0.3-0.1,0.5-0.3,0.6c0,0,0,0,0,0
			c-0.4,0.2-0.8,0.1-1-0.3l-3.3-4.6c-0.7,2-1.3,3.4-1.6,4.2c0,0.1-0.1,0.2-0.1,0.3c-0.1,0.3-0.3,0.5-0.6,0.5c-0.2,0-0.5-0.1-0.6-0.3
			c-0.1-0.1-0.1-0.2-0.1-0.4c0-0.1,0.3-1,0.9-2.7c0.3-0.7,0.6-1.7,1.1-3L155.8,432.1z"/>
		<path class="st3" d="M146.4,431.6c0.1,0.1,0.1,0.2,0.1,0.3l0.9,6.7c0.3,1.2,0.8,2.3,1.5,3.3c0.4,0.7,1,1.2,1.8,1.4h0.2
			c0.8,0,1.4-0.4,1.8-1.4c0.4-1,0.6-2.1,0.5-3.2c-0.1-1.4-0.2-2.8-0.5-4.1c-0.2-0.9-0.3-1.8-0.3-2.7c0-0.2,0.1-0.5,0.4-0.6
			c0.1-0.1,0.2-0.1,0.3-0.1c0.3,0,0.6,0.2,0.6,0.5c0,0.1,0,0.1,0.1,0.2c0.4,2.2,0.7,3.9,0.8,5.1c0.1,0.8,0.1,1.5,0.1,2.2
			c0,1.4-0.3,2.7-1,3.9c-0.5,0.8-1.3,1.4-2.2,1.6c-0.1,0-0.3,0-0.4,0c-0.8,0-1.5-0.2-2.1-0.7c-0.3-0.3-0.6-0.6-0.9-0.9
			c0,1.3,0.5,2.6,1.3,3.7c0.6,0.7,1.4,1.2,2.4,1.2c1.2-0.1,2.3-0.7,3-1.7c0.1-0.2,0.3-0.3,0.5-0.3c0.3,0,0.5,0.1,0.6,0.4
			c0.1,0.1,0.1,0.2,0.1,0.4c0,0.1,0,0.2-0.1,0.3c-0.5,0.8-1.2,1.5-2.1,1.8c-0.6,0.3-1.2,0.5-1.9,0.5c-1.5,0.1-3-0.7-3.9-1.9
			c-0.7-1-1.1-2.1-1.3-3.2c-0.1-0.6-0.6-4.7-1.6-12.4c0-0.3,0.2-0.5,0.4-0.6c0.1,0,0.2-0.1,0.3-0.1
			C146.1,431.1,146.3,431.3,146.4,431.6z"/>
		<path class="st0" d="M57.3,437.8c0-9.9,0.2-18,0.4-18s0.4,8.1,0.4,18s-0.2,18-0.4,18S57.3,447.7,57.3,437.8z"/>
		<path class="st1" d="M217.6,437.8c0-9.9,0.2-18,0.4-18s0.4,8.1,0.4,18s-0.2,18-0.4,18C217.8,455.8,217.6,447.7,217.6,437.8z"/>
		<path class="st0" d="M53.9,437.8c0-9.9,0.2-18,0.4-18s0.4,8.1,0.4,18s-0.2,18-0.4,18C54,455.8,53.9,447.7,53.9,437.8z"/>
		<path class="st1" d="M220.9,437.8c0-9.9,0.2-18,0.4-18s0.4,8.1,0.4,18s-0.2,18-0.4,18C221,455.8,220.9,447.7,220.9,437.8z"/>
		<path class="st1" d="M105.2,425.8L105.2,425.8L105.2,425.8l-20.7,16.8v-0.2l2.8,0.7l17.5,4.6h-0.1l15.9-6.6l4.5-1.9l1.2-0.5
			l0.3-0.1h0.1l-0.1,0l-0.3,0.1l-1.2,0.5l-4.5,1.9l-15.9,6.7h-0.1l-17.5-4.6l-2.8-0.7l-0.2-0.1l0.2-0.1l20.7-16.7L105.2,425.8"/>
		<polygon class="st1" points="86.5,441.3 87.9,442.1 86.5,442.7 86.2,444.2 85.1,443 83.6,443.2 84.4,441.9 83.7,440.5 85.2,440.8 
			86.4,439.8 		"/>
		<polygon class="st1" points="106.3,447.4 107.1,447.9 106.2,448.2 105.9,449.2 105.3,448.4 104.3,448.5 104.9,447.7 104.5,446.7 
			105.5,447 106.2,446.3 		"/>
		<polygon class="st1" points="127.5,438.4 127.9,439.5 126.8,439.2 125.8,440 125.8,438.7 124.7,438.1 125.9,437.6 126.2,436.5 
			126.9,437.4 128.2,437.3 		"/>
		<polygon class="st1" points="76.4,427 76.8,428.1 75.7,427.8 74.7,428.6 74.7,427.4 73.6,426.7 74.8,426.3 75.1,425.1 75.9,426.1 
			77.1,426 		"/>
		<polygon class="st1" points="105.7,425.8 106,426.6 105.3,426.3 104.7,426.8 104.6,426.1 104,425.6 104.7,425.4 104.9,424.6 
			105.4,425.2 106.2,425.2 		"/>
		<path class="st1" d="M90.3,426.1c8.3-0.3,15-0.6,15-0.5s-6.7,0.4-15,0.8s-15,0.6-15,0.5S82,426.4,90.3,426.1z"/>
		<path class="st1" d="M67.8,403.4h198.7c3.2,5,2.6,10.6,0,16.5H67.8C65.4,414.9,65.2,409.4,67.8,403.4z"/>
		<rect x="117.7" y="408.1" class="st2" width="107.7" height="6"/>
		<path class="st1" d="M260.1,417.7c1.7-3.6,2.1-7.7,1-11.6c-0.3-0.8-0.5-1.6-0.7-2.4c0.6,0.6,1,1.4,1.2,2.2c1.4,4,1,8.3-1.1,12
			c-0.4,0.8-0.9,1.5-1.6,2C259.3,419.2,259.6,418.5,260.1,417.7z"/>
		<path class="st1" d="M255.7,417.7c1.7-3.6,2.1-7.7,1-11.6c-0.3-0.8-0.5-1.6-0.7-2.4c0.6,0.6,1,1.4,1.2,2.2c1.4,4,1,8.3-1,12
			c-0.4,0.8-0.9,1.5-1.6,2C254.9,419.2,255.3,418.5,255.7,417.7z"/>
		<path class="st0" d="M73.8,411.6c-0.1-4.8,1.8-8.2,2-8.1s-1.3,3.5-1.3,8.1s1.6,8,1.4,8.1C75.7,419.8,73.9,416.3,73.8,411.6z"/>
		<path class="st0" d="M78.3,411.7c0-4.5,1.1-8,1.3-7.9s-0.6,3.5-0.6,7.9s0.8,7.9,0.6,7.9C79.4,419.7,78.3,416.2,78.3,411.7z"/>
		<path class="st1" d="M210.7,125.8l-31.7,24.9l9.5,32.3l2.2-2.8c3.4-4.7,8.8-7.7,14.6-8.1l0,0c0.6,0.4,1.4,0.5,2,0.1l2.9-1.9
			c0.5-0.3,0.8-0.9,0.8-1.5l0,0c5.4-7.6,20.4-8.8,20.4-8.8l-1.1-2.4L210.7,125.8z"/>
		<path class="st2" d="M201.1,148.8l7.2,21.6c8.4-13.8,24.3-12.8,24.3-12.8l-2-4.2C227.5,149.6,201.1,148.8,201.1,148.8z"/>
		<path class="st0" d="M232.5,153.6c-17.7-3.6-24.1,16.9-24.1,16.9L194,139.7c3-21.4,23.4-17.7,23.4-17.7L232.5,153.6z"/>
		<path class="st2" d="M194.5,140.8l-19.1,12.5l11.5,28.9c4.7-13.2,21.5-11.7,21.5-11.7L194.5,140.8z"/>
		<path class="st0" d="M208.4,170.5c-13.3-8.5-27,0.6-27,0.6l-11.1-29.3l5.5-3.9c8.8-5.7,18.1,1.8,18.1,1.8L208.4,170.5z"/>
		<path class="st1" d="M207.7,169.3c-0.4-0.8-1-1.9-1.6-3.2c-1.4-2.7-3.2-6.6-5.1-10.8s-3.7-8.1-4.9-10.9c-0.6-1.4-1.1-2.6-1.4-3.4
			c-0.2-0.4-0.3-0.8-0.4-1.3c0.3,0.4,0.5,0.8,0.6,1.2l1.5,3.3c1.3,2.9,3.1,6.7,5,10.9l5,10.9l1.5,3.3c0.2,0.4,0.4,0.8,0.5,1.2
			C208.1,170.1,207.9,169.7,207.7,169.3z"/>
		<path class="st1" d="M176.4,144.2c0.5-0.4,1.1-0.8,1.7-1.1c2-1.1,4.2-1.7,6.5-1.9c2.3-0.2,4.5,0.1,6.7,0.9
			c0.6,0.2,1.3,0.5,1.8,0.9c0.4,0.3,0.6,0.4,0.6,0.4s-1-0.4-2.6-0.9c-4.2-1.3-8.8-1-12.8,1c-1.5,0.7-2.4,1.4-2.4,1.3
			C175.9,144.7,176,144.5,176.4,144.2z"/>
		<path class="st1" d="M177.3,147.7c0.5-0.4,1.1-0.8,1.7-1.1c4-2.2,8.8-2.6,13.1-1c0.6,0.2,1.3,0.5,1.9,0.9c0.4,0.3,0.7,0.4,0.6,0.4
			s-1-0.4-2.6-0.9c-4.2-1.3-8.8-1-12.8,1c-1.5,0.8-2.4,1.4-2.4,1.3C176.7,148.2,176.9,148.1,177.3,147.7z"/>
		<path class="st1" d="M178.8,151.2c0.5-0.4,1.1-0.8,1.7-1.1c2-1.1,4.2-1.7,6.4-1.9c2.3-0.2,4.5,0.1,6.7,0.9
			c0.6,0.2,1.3,0.5,1.8,0.9c0.4,0.3,0.7,0.4,0.6,0.4s-1-0.4-2.6-0.9c-4.2-1.3-8.8-1-12.8,1c-1.5,0.7-2.4,1.4-2.4,1.3
			C178.3,151.8,178.5,151.6,178.8,151.2z"/>
		<path class="st1" d="M179.8,154.8c0.5-0.4,1.1-0.8,1.7-1.1c4-2.2,8.8-2.6,13.1-1c0.6,0.2,1.3,0.5,1.9,0.9c0.4,0.3,0.7,0.4,0.6,0.4
			s-1-0.4-2.6-0.9c-4.2-1.3-8.8-1-12.8,1c-1.5,0.8-2.4,1.4-2.4,1.3C179.3,155.3,179.4,155.1,179.8,154.8z"/>
		<path class="st1" d="M180.8,158.5c0.5-0.4,1.1-0.8,1.7-1.1c4-2.2,8.8-2.6,13.1-1c0.6,0.2,1.3,0.5,1.8,0.9c0.4,0.3,0.6,0.4,0.6,0.4
			s-1-0.4-2.6-0.9c-4.2-1.3-8.8-1-12.8,1c-1.5,0.8-2.4,1.4-2.4,1.3C180.2,159,180.4,158.8,180.8,158.5z"/>
		<path class="st1" d="M181.8,162.7c0.2-0.2,0.5-0.4,0.8-0.6c0.4-0.2,0.7-0.4,1.1-0.6c1-0.5,2-0.9,3-1.3c1.3-0.4,2.6-0.7,4-0.8
			c1.3-0.1,2.7-0.1,4,0c1.1,0.1,2.2,0.3,3.2,0.6c0.4,0.1,0.8,0.3,1.2,0.4c0.3,0.1,0.6,0.3,0.9,0.4c0.5,0.3,0.7,0.4,0.7,0.5
			s-1.1-0.5-2.8-0.9c-1-0.3-2.1-0.4-3.2-0.5c-1.3-0.1-2.6-0.1-3.9,0.1c-1.3,0.2-2.6,0.4-3.9,0.8c-1,0.3-2,0.7-3,1.1
			c-1.6,0.8-2.6,1.5-2.6,1.4C181.2,163.3,181.4,163.1,181.8,162.7z"/>
		<path class="st1" d="M183.2,165.8c0.2-0.2,0.5-0.4,0.8-0.6c0.4-0.2,0.7-0.5,1.1-0.6c1-0.5,2-0.9,3.1-1.2c1.3-0.4,2.6-0.6,4-0.7
			c1.4-0.1,2.7-0.1,4,0.1c1.1,0.1,2.2,0.4,3.2,0.7c0.4,0.1,0.8,0.3,1.2,0.5c0.3,0.1,0.6,0.3,0.9,0.4c0.5,0.3,0.7,0.4,0.7,0.5
			s-1.1-0.5-2.8-1c-1-0.3-2.1-0.5-3.2-0.6c-2.6-0.3-5.3-0.1-7.9,0.6c-1,0.3-2.1,0.6-3,1.1c-1.6,0.8-2.6,1.5-2.6,1.4
			C182.6,166.3,182.8,166.1,183.2,165.8z"/>
		<path class="st1" d="M208.6,159.7c0.1-0.8,0.3-1.5,0.6-2.2c0.9-2.4,2.4-4.5,4.3-6.2c2-1.6,4.3-2.8,6.8-3.2
			c0.8-0.1,1.5-0.2,2.3-0.2c0.3,0,0.6,0,0.8,0.1c0,0.1-1.1,0.1-3,0.5c-4.9,1.1-8.9,4.5-10.9,9.2c-0.7,1.8-0.9,2.9-1,2.9
			C208.6,160.2,208.6,159.9,208.6,159.7z"/>
		<path class="st1" d="M206.9,155.7c0.1-0.8,0.3-1.5,0.6-2.2c1.8-4.9,6-8.5,11.1-9.4c0.8-0.1,1.5-0.2,2.3-0.2c0.3,0,0.6,0,0.8,0.1
			c0,0.1-1.2,0.1-3,0.5c-4.9,1.1-8.9,4.5-10.9,9.2c-0.7,1.8-0.9,2.9-1,2.9C206.8,156.2,206.9,156,206.9,155.7z"/>
		<path class="st1" d="M205.1,151.7c0.1-0.8,0.3-1.5,0.6-2.2c1.8-4.9,6-8.5,11.1-9.4c0.8-0.1,1.5-0.2,2.3-0.2c0.5,0,0.8,0,0.8,0.1
			s-1.1,0.1-3,0.5c-4.9,1.1-9,4.5-10.9,9.2c-0.7,1.8-0.9,2.9-1,2.9C205.1,152.5,205.1,152.2,205.1,151.7z"/>
		<path class="st1" d="M203.4,147.7c0.1-0.8,0.3-1.5,0.6-2.2c1.8-4.9,6-8.5,11.1-9.4c0.8-0.1,1.5-0.2,2.3-0.2c0.3,0,0.6,0,0.8,0.1
			c0,0.1-1.2,0.1-3,0.5c-4.9,1.1-8.9,4.5-10.9,9.2c-0.7,1.8-0.9,2.9-1,2.9C203.3,148.3,203.3,148,203.4,147.7z"/>
		<path class="st1" d="M201.6,143.7c0.1-0.8,0.3-1.5,0.6-2.2c1.8-4.9,6-8.5,11.1-9.4c0.8-0.1,1.5-0.2,2.3-0.2c0.3,0,0.6,0,0.8,0.1
			c0,0.1-1.1,0.1-3,0.5c-4.9,1.1-8.9,4.5-10.9,9.2c-0.7,1.8-0.9,2.9-1,2.9C201.6,144.3,201.6,144,201.6,143.7z"/>
		<path class="st1" d="M199.9,139.7c0.1-0.8,0.3-1.5,0.6-2.2c1.8-4.9,6-8.5,11.1-9.4c0.8-0.1,1.5-0.2,2.3-0.2c0.3,0,0.6,0,0.8,0.1
			c0,0.1-1.2,0.1-3,0.5c-4.9,1.1-8.9,4.5-10.9,9.2c-0.7,1.8-0.9,2.9-1,2.9C199.8,140.3,199.8,140,199.9,139.7z"/>
		<path class="st1" d="M435.8,252.4l-0.6-0.3c-0.7-0.4-1.4-0.9-2.1-1.4c-1.1-0.8-2-1.8-2.8-2.9c-1.1-1.4-2-3-2.6-4.7
			c-0.7-2.1-1.2-4.2-1.6-6.3c-0.5-2.4-1.3-4.8-2.4-7c-1.3-2.4-2.9-4.6-4.9-6.5c-4.3-4.1-10.1-6.3-16-6.1c-2.7,0.1-5.4,0.7-7.9,1.7
			c-2.4,1-4.6,2.2-6.8,3.1c-2,0.9-4.1,1.4-6.3,1.5c-3.1,0.1-6.3-0.6-9-2.2c-0.5-0.3-0.9-0.5-1.3-0.8s-0.6-0.5-0.9-0.6l-0.5-0.4
			l-0.2-0.1l0.2,0.1l0.5,0.4c0.2,0.2,0.5,0.4,0.9,0.6s0.8,0.5,1.3,0.8c2.8,1.5,5.9,2.2,9,2.1c2.2-0.1,4.3-0.6,6.2-1.5
			c2.1-0.9,4.3-2.1,6.7-3.1c2.5-1.1,5.2-1.7,8-1.8c6-0.2,11.8,2.1,16.1,6.2c2,1.9,3.7,4.1,5,6.6c1.1,2.2,1.9,4.6,2.4,7
			c0.4,2.1,0.9,4.2,1.6,6.3c0.6,1.7,1.4,3.2,2.5,4.7c0.8,1.1,1.8,2,2.8,2.9c0.7,0.5,1.4,1,2.1,1.5
			C435.5,252.2,435.7,252.3,435.8,252.4l0.2,0L435.8,252.4z"/>
		<path class="st1" d="M447,234l-0.6-0.2c-0.5-0.3-1.3-0.6-2.4-1c-1.3-0.5-2.6-0.9-4-1.1c-1.8-0.4-3.6-0.5-5.4-0.3
			c-0.5,0.1-1,0.2-1.5,0.3c-0.5,0.2-1,0.3-1.5,0.6l-3.2,1.3c-2.1,0.9-4.5,1.9-7,2.8c-2.6,1-5.4,1.4-8.2,1.4c-3,0-6-0.6-8.8-1.8
			c-2.8-1.2-5.2-3-7.2-5.3c-1.8-2.2-3.1-4.7-3.8-7.5c-0.6-2.6-0.7-5.2-1.2-7.5c-0.2-1.1-0.5-2.2-0.9-3.3c-0.4-1-0.9-1.9-1.4-2.8
			c-1-1.5-2.2-2.9-3.6-4c-1.1-0.9-2.2-1.6-3.5-2.1c-0.8-0.4-1.6-0.7-2.4-0.9l-0.6-0.2l-0.2-0.1h0.2l0.7,0.1c0.8,0.2,1.7,0.5,2.5,0.8
			c1.3,0.6,2.4,1.3,3.5,2.1c2.3,1.8,4.1,4.2,5.1,6.9c0.4,1.1,0.7,2.2,0.9,3.3c0.5,2.3,0.6,4.9,1.2,7.5c0.6,2.7,1.9,5.2,3.7,7.4
			c1.9,2.3,4.4,4.1,7.1,5.3c2.7,1.2,5.7,1.8,8.7,1.8c2.8,0,5.5-0.5,8.2-1.4c2.5-0.9,4.8-1.9,7-2.8l3.2-1.3c0.5-0.2,1-0.4,1.5-0.6
			c0.5-0.2,1-0.3,1.5-0.3c1.8-0.2,3.7-0.1,5.4,0.3c1.3,0.3,2.7,0.7,3.9,1.2c1.1,0.4,2.2,0.9,3.3,1.4L447,234z"/>
		<path class="st1" d="M429.8,236.7c-1.5,2.7-2.8,4.8-2.8,4.8s1.1-2.2,2.6-4.9s2.8-4.8,2.8-4.8C432.5,231.9,431.3,234.1,429.8,236.7
			z"/>
		<path class="st1" d="M434,239.3c-2,4.4-3.7,8-3.7,7.9s1.5-3.6,3.5-8s3.7-7.9,3.7-7.9C437.6,231.4,436,234.9,434,239.3z"/>
		<path class="st1" d="M438.6,241.9c-2.4,5.3-4.3,9.5-4.4,9.5c-0.1,0,1.8-4.3,4.2-9.6s4.3-9.5,4.4-9.5
			C442.8,232.3,441,236.6,438.6,241.9z"/>
		<path class="st1" d="M397.5,222.9c-1.1,3-2,5.4-2.1,5.3c-0.1,0,0.8-2.4,1.8-5.4s2-5.4,2.1-5.4
			C399.4,217.5,398.6,219.9,397.5,222.9z"/>
		<path class="st1" d="M406.3,218.1l-0.6,1.7c-0.6,1.4-1.4,3.4-2.1,5.6c-0.8,2.2-1.5,4.2-2,5.6l-0.6,1.7c-0.1,0.2-0.1,0.4-0.3,0.6
			c0-0.2,0.1-0.4,0.2-0.6c0.1-0.4,0.3-1,0.5-1.7c0.5-1.5,1.2-3.5,2-5.6c0.8-2.2,1.6-4.1,2.2-5.6C405.8,219,406.1,218.4,406.3,218.1
			c0.1-0.2,0.2-0.4,0.3-0.6C406.5,217.6,406.4,217.9,406.3,218.1z"/>
		<path class="st1" d="M412.6,219.9c-0.1,0.5-0.3,1.2-0.6,2c-0.5,1.6-1.2,3.9-2.1,6.3c-0.9,2.4-1.8,4.6-2.5,6.2
			c-0.4,0.8-0.6,1.4-0.9,1.8c-0.1,0.2-0.2,0.5-0.3,0.7c0.1-0.2,0.2-0.5,0.3-0.7c0.2-0.5,0.5-1.1,0.8-1.9c0.7-1.6,1.6-3.8,2.5-6.2
			c0.9-2.4,1.7-4.7,2.2-6.3C412.2,221.1,412.4,220.4,412.6,219.9c0-0.2,0.1-0.5,0.2-0.7C412.8,219.5,412.7,219.7,412.6,219.9z"/>
		<path class="st1" d="M418.2,224.6c-0.1,0.3-0.3,0.9-0.5,1.5c-0.4,1.3-1.1,2.9-1.9,4.8s-1.6,3.5-2.1,4.7c-0.3,0.6-0.5,1.1-0.7,1.4
			c-0.1,0.2-0.2,0.3-0.3,0.4c0.1-0.2,0.1-0.4,0.2-0.5l0.6-1.4c0.5-1.2,1.2-2.9,2.1-4.7c0.8-1.9,1.5-3.6,2-4.8
			C417.8,225.4,418,224.9,418.2,224.6c0-0.3,0.1-0.4,0.2-0.6C418.4,224.2,418.3,224.4,418.2,224.6z"/>
		<path class="st1" d="M421,232.3c-0.6,1.5-1.3,3-2,4.5c0.5-1.6,1.1-3.1,1.8-4.6c0.6-1.5,1.3-3,2-4.5
			C422.2,229.3,421.7,230.8,421,232.3z"/>
		<path class="st1" d="M390.6,210.9c-0.1,0.3-0.3,0.8-0.4,1.3c-0.4,1.1-1,2.7-1.7,4.3s-1.3,3.2-1.8,4.3c-0.3,0.5-0.5,1-0.6,1.3
			c-0.1,0.2-0.2,0.3-0.3,0.4c0-0.2,0.1-0.3,0.2-0.5c0.1-0.4,0.3-0.8,0.5-1.3c0.5-1.2,1.1-2.7,1.8-4.3l1.7-4.3L390.6,210.9
			c0-0.2,0-0.4,0.1-0.5C390.7,210.6,390.7,210.7,390.6,210.9z"/>
		<path class="st1" d="M382.8,214.5c-2,5-3.7,9-3.8,9s1.5-4.1,3.6-9.1s3.7-9,3.8-9C386.4,205.4,384.8,209.5,382.8,214.5z"/>
		<path class="st1" d="M378.3,212.1c-2.4,5.5-4.4,9.9-4.5,9.8c-0.1,0,1.8-4.5,4.2-9.9s4.4-9.8,4.5-9.8
			C382.6,202.2,380.7,206.6,378.3,212.1z"/>
		<path class="st1" d="M380.4,288.5c0-4.8,3.9-8.7,8.7-8.7l0,0c4.8,0,8.7,3.9,8.7,8.7c0,4.8-3.9,8.7-8.7,8.7
			C384.3,297.2,380.4,293.4,380.4,288.5C380.4,288.6,380.4,288.5,380.4,288.5z"/>
		<path class="st1" d="M382.3,251.5c3.6,0,6.5,2.9,6.5,6.5c0,3.6-2.9,6.5-6.5,6.5s-6.5-2.9-6.5-6.5
			C375.8,254.4,378.7,251.5,382.3,251.5z"/>
		<path class="st1" d="M401,268c0-2.6,2.1-4.7,4.7-4.7s4.7,2.1,4.7,4.7c0,2.6-2.1,4.7-4.7,4.7C403.1,272.7,401,270.6,401,268
			L401,268z"/>
		<path class="st1" d="M375.1,317.2c-1.1-1.1-1.1-3,0-4.1c1.1-1.1,3-1.1,4.1,0c1.1,1.1,1.1,3,0,4.1
			C378.1,318.3,376.3,318.3,375.1,317.2C375.2,317.2,375.2,317.2,375.1,317.2z"/>
		<path class="st1" d="M414.7,294.1c0-2.6,2.1-4.7,4.7-4.7s4.7,2.1,4.7,4.7s-2.1,4.7-4.7,4.7S414.7,296.7,414.7,294.1L414.7,294.1z"
			/>
		<path class="st1" d="M383.7,301.6c-3.3,7-6.2,12.6-6.5,12.5c-0.3-0.2,2.1-6,5.4-13s6.2-12.6,6.5-12.5
			C389.4,288.7,387,294.5,383.7,301.6z"/>
		<path class="st1" d="M404.1,291c7.9,1.1,14.2,2.3,14.1,2.6c0,0.4-6.5-0.3-14.3-1.5c-7.9-1.2-14.1-2.4-14.1-2.7
			C389.9,289.1,396.3,289.9,404.1,291z"/>
		<path class="st1" d="M397.8,276.5c4-4.9,6.9-9.1,7.1-8.9c0.3,0.1-2.2,4.7-6.2,9.7s-8.1,8.2-8.3,8
			C390.2,285,393.8,281.4,397.8,276.5z"/>
		<path class="st1" d="M382.3,257.9C382.3,257.9,382.4,257.9,382.3,257.9L382.3,257.9c0.1,0.1,0.2,0.1,0.2,0.2
			c0.1,0.3,0.3,0.5,0.4,0.8c0.3,0.7,0.6,1.7,1,3c0.8,2.6,1.8,6.1,2.8,10c2,7.8,3.2,14.3,2.9,14.3s-2-6.2-4-14c-1-3.9-1.9-7.4-2.5-10
			c-0.2-1.1-0.4-2.1-0.7-3.1l-0.1-0.8V258l0,0l0,0l0,0L382.3,257.9z"/>
		<path class="st0" d="M133.1,156.2l-0.6,2.1l2.6,0.8l-4.8,17.1L112,197.9c-0.4,0.5-0.7,1-0.8,1.6c-0.6,2.3,0.7,4.7,3,5.3l21.6,6.1
			c0.6,0.2,1.2,0.2,1.8,0.1c2.3-0.3,4-2.5,3.6-4.9l-4-27.2l5.1-18l2.8,0.8l0.6-2L133.1,156.2z"/>
		<path class="st1" d="M145.2,159.7l-0.6-0.2l-2.4-0.7l-9.1-2.5l0.1-0.1c-0.2,0.7-0.4,1.4-0.6,2.1l-0.1-0.1l2.6,0.7h0.1v0.1
			l-4.8,17.1l0,0l0,0l-12.6,15l-3.4,4.1c-0.6,0.7-1.2,1.4-1.8,2.1c-0.3,0.3-0.6,0.7-0.8,1.1c-0.2,0.4-0.4,0.8-0.5,1.2
			c-0.2,0.9-0.1,1.8,0.2,2.6c0.4,0.8,1,1.5,1.8,1.9l0.3,0.2l0.3,0.1c0.2,0.1,0.4,0.2,0.7,0.2l1.4,0.4l2.8,0.8l14.7,4.1l1.8,0.5
			c0.6,0.2,1.1,0.3,1.7,0.3c0.1,0,0.2,0,0.4,0c2.3-0.3,3.9-2.3,3.6-4.6c-0.1-1.1-0.3-2.3-0.5-3.4c-1.3-9-2.5-17.1-3.5-23.9v-0.1
			c2.3-8,4.1-14.2,5.1-18v-0.1l0,0l2.8,0.8l0,0c0.2-0.7,0.3-1.2,0.4-1.5l0.1-0.5c0,0,0,0.1-0.1,0.5l-0.4,1.5l0,0l0,0l-2.8-0.8h0.1
			c-1,3.8-2.8,10-5,18v-0.1c1,6.9,2.2,14.9,3.6,23.9c0.2,1.1,0.3,2.3,0.5,3.4c0,0.1,0,0.3,0,0.4c0.1,2.4-1.9,4.5-4.3,4.5
			c-0.6,0-1.2-0.1-1.8-0.3l-1.8-0.5l-14.7-4.1l-2.8-0.8l-1.4-0.4c-0.2-0.1-0.4-0.1-0.7-0.2l-0.4-0.1l-0.3-0.2
			c-0.1,0-0.2-0.1-0.2-0.1c-2.1-1.3-2.7-4-1.4-6.1c0.3-0.4,0.5-0.7,0.9-1.1l1.8-2.1l3.4-4.1l12.6-14.8l0,0
			c1.9-6.5,3.5-12.3,4.9-17.1l0.1,0.1l-2.6-0.8h-0.1v-0.1c0.2-0.7,0.4-1.5,0.6-2.1v-0.1h0.1l9.1,2.6l2.4,0.7l0.6,0.2l0.2,0.1
			L145.2,159.7z"/>
		<path class="st1" d="M139.1,204.9c0.1,0.4,0,0.9-0.1,1.3c-0.5,1.7-2.3,2.8-4,2.3l-19.3-5.5c-0.5-0.1-0.9-0.4-1.3-0.7
			c-1.3-1.2-1.4-3.3-0.2-4.6l7.1-7.8c2.1-0.5,4.1,0.8,5.7,2.3s3,3.2,5,4c1.2,0.4,2.4,0.6,3.6,0.7l0,0c1.6,0.3,2.8,1.6,3,3.2
			L139.1,204.9z"/>
		<path class="st3" d="M121.3,191.9c0.2,0.1,0.3,0.2,0.5,0.3c0.5,0.4,1,0.9,1.4,1.4c0.5,0.6,1.1,1.5,1.7,2.4c0.7,1,1.6,1.8,2.6,2.3
			c1.1,0.5,2.2,0.7,3.4,0.8c1.1,0.1,2.1,0.1,2.9,0.1l2,0.1c0.2,0,0.5,0,0.7,0.1c-0.2,0-0.5,0-0.7,0h-2c-0.8-0.1-1.8-0.1-2.9-0.1
			c-1.2,0-2.4-0.3-3.5-0.8c-1.1-0.6-2-1.4-2.7-2.4c-0.7-0.9-1.2-1.7-1.7-2.4c-0.5-0.7-1.2-1.3-1.9-1.9
			C121.1,191.8,121.2,191.8,121.3,191.9z"/>
		<path class="st2" d="M99.4,266.8c0.9,1.5,2,3.2,2,3.2l10.7-6.3l-1.8-3.1c3.1-4.5,3.3-10.4,0.5-15.2c-4-6.7-12.7-9-19.4-5
			c-6.7,4-9,12.7-5,19.4C89.1,264.4,94.1,267.1,99.4,266.8z"/>
		<path class="st1" d="M105.2,267.6l-0.3-0.4l-1.2-1.5c-0.5-0.7-1.2-1.5-2.1-2.3c-0.9-1-2-1.9-3.1-2.7c-0.6-0.5-1.3-0.9-2.1-1.2
			c-0.4-0.2-0.8-0.3-1.2-0.3c-0.4,0-0.8,0.3-1,0.6c-0.2,0.4-0.1,0.9,0.3,1.1c0.4,0.2,0.9,0.3,1.3,0.2c1-0.2,1.8-0.8,2.3-1.6
			c0.6-0.9,0.7-1.9,0.5-2.9c-0.1-0.5-0.4-1-0.7-1.4c-0.2-0.2-0.4-0.3-0.7-0.3c-0.3,0-0.5,0-0.7,0.2c-0.2,0.1-0.3,0.4-0.3,0.6
			c0,0.3,0.1,0.5,0.3,0.7c0.4,0.4,0.9,0.6,1.5,0.6c1.1,0.2,2.3-0.1,3.2-0.8c0.9-0.7,1.4-1.9,1.3-3c0-0.5-0.3-1.1-0.7-1.4
			c-0.2-0.2-0.5-0.2-0.7-0.2c-0.3,0.1-0.5,0.2-0.6,0.4c-0.3,0.5-0.3,1,0,1.5c0.2,0.5,0.6,0.9,1,1.2c0.8,0.7,1.8,1,2.8,1
			c1,0,1.9-0.4,2.6-1.1c0.4-0.3,0.6-0.7,0.7-1.1c0.1-0.4-0.1-0.8-0.4-1c-0.4-0.2-0.9,0-1.1,0.4c-0.2,0.4-0.3,0.8-0.2,1.2
			c0.1,0.8,0.2,1.6,0.3,2.4c0.5,3,0.9,5.5,1.3,7.2c0.2,0.8,0.3,1.5,0.4,1.9c0,0.2,0.1,0.4,0.1,0.5v0.2l0-0.2l-0.1-0.5
			c-0.1-0.4-0.3-1.1-0.4-1.9c-0.3-1.7-0.9-4.1-1.3-7.1c-0.1-0.8-0.2-1.6-0.3-2.4c-0.1-0.4,0-0.9,0.3-1.3c0.1-0.2,0.3-0.4,0.5-0.5
			c0.2-0.1,0.5-0.1,0.7,0c0.5,0.2,0.7,0.7,0.6,1.2c-0.1,0.5-0.4,0.9-0.8,1.2c-0.7,0.7-1.7,1.1-2.7,1.1c-1.1,0-2.1-0.3-2.9-1
			c-0.4-0.4-0.8-0.8-1-1.3c-0.1-0.3-0.2-0.5-0.2-0.8c0-0.3,0.1-0.6,0.2-0.8c0-0.1,0.1-0.2,0.2-0.2c0.4-0.4,1-0.4,1.4-0.1
			c0.5,0.4,0.7,0.9,0.8,1.5c0.1,1.2-0.4,2.4-1.3,3.1c-0.9,0.7-2.2,1-3.3,0.8c-0.6-0.1-1.1-0.3-1.6-0.7c-0.2-0.2-0.3-0.5-0.3-0.8
			c0-0.3,0.1-0.6,0.4-0.8c0.5-0.3,1.2-0.2,1.6,0.2c0.4,0.4,0.7,0.9,0.8,1.4c0.2,1,0,2.1-0.5,3c-0.6,0.9-1.4,1.5-2.4,1.7
			c-0.5,0.1-1,0-1.4-0.3c-0.4-0.3-0.6-0.9-0.3-1.3c0.2-0.4,0.7-0.7,1.1-0.7c0.4,0,0.9,0.1,1.3,0.3c0.7,0.4,1.4,0.8,2.1,1.2
			c1.1,0.8,2.2,1.7,3.1,2.8c0.8,0.9,1.5,1.7,2,2.4s1,1.2,1.2,1.6L105.2,267.6l0.1,0.1L105.2,267.6z"/>
		<path class="st1" d="M102.3,271.2L102.3,271.2c-0.2-0.4-0.1-0.9,0.3-1.1l9.2-5.4c0,0,0,0,0,0c0.4-0.2,0.9-0.1,1.1,0.3l0,0
			c0,0,0,0,0,0c0.2,0.4,0.1,0.9-0.3,1.1l-9.2,5.4C103,271.8,102.6,271.6,102.3,271.2z"/>
		<path class="st1" d="M103.8,272.2c-0.4,0.2-0.5,0.7-0.3,1.1s0.7,0.5,1.1,0.3l0.7-0.4l2.8,1.8c0.3,0.2,0.7,0.2,1.1,0l3.3-1.9
			c0.3-0.2,0.5-0.6,0.5-0.9l-0.1-3.3l1-0.6l0,0c0.4-0.2,0.5-0.7,0.3-1.1s-0.7-0.5-1.1-0.3L103.8,272.2L103.8,272.2z"/>
		<g class="st4">
			<path class="st5" d="M105.8,242c1.2,0.8,2.2,1.8,2.9,3c0.6,1,1.1,2,1.4,3.1c0.2,0.7,0.3,1.5,0.3,2.3c0,0.5-0.1,0.8-0.3,0.8
				c-0.3,0-0.5-1.1-1.2-2.7c-1.8-4.2-5.8-7-10.4-7.2c-1.7-0.1-2.9,0.1-2.9-0.1c0-0.1,0.2-0.3,0.7-0.5c0.7-0.3,1.4-0.5,2.2-0.6
				c1.1-0.1,2.3-0.1,3.4,0.2"/>
		</g>
		<g class="st4">
			<path class="st5" d="M91.1,243.7c-0.2-0.2-0.2-0.6,0-0.8c0.5-0.8,1.4-1.3,2.3-1.4c0.4,0,0.7,0.1,0.7,0.4c0.2,0.5-0.4,1.1-1.2,1.5
				"/>
		</g>
		<path class="st2" d="M108.8,274.3c0.4-0.5,0.9-0.9,1.5-1.2c0.6-0.3,1.2-0.5,1.8-0.6c0.3,0,0.5,0,0.8,0c0,0-0.3,0-0.8,0.1
			c-0.6,0.1-1.2,0.3-1.7,0.6C109.8,273.6,109.3,274,108.8,274.3c-0.2,0.4-0.4,0.7-0.4,0.7C108.5,274.8,108.6,274.5,108.8,274.3z"/>
		<path class="st2" d="M108.9,270.9c2.1-1.2,3.7-2.1,3.8-2.1s-1.6,1-3.7,2.3s-3.8,2.1-3.8,2.1C105.2,273.1,106.9,272.1,108.9,270.9z
			"/>
		<path class="st2" d="M107.4,273.4c0.6-0.3,1.4-0.8,2.2-1.3l2.2-1.3c0.3-0.2,0.6-0.3,0.9-0.5c-0.3,0.2-0.6,0.4-0.9,0.6
			c-0.5,0.3-1.3,0.8-2.2,1.3s-1.7,0.9-2.2,1.2c-0.3,0.2-0.7,0.3-1,0.4C106.8,273.7,107.1,273.5,107.4,273.4z"/>
		<path class="st1" d="M415.6,88.9c0.4,0.8,1,1.5,1.8,1.9l0.7,0.4l-0.8,0.3c-0.8,0.4-1.5,1-1.9,1.8l-0.4,0.7l-0.4-0.7
			c-0.4-0.8-1-1.5-1.8-1.9l-0.7-0.4l0.7-0.3c0.8-0.4,1.5-1,1.9-1.8l0.4-0.7L415.6,88.9z"/>
		<circle class="st2" cx="378" cy="93.5" r="17.1"/>
		<path class="st5" d="M380.2,98.8c0-1.5,1.3-2.8,2.8-2.8c1.5,0,2.8,1.2,2.8,2.8c0,1.5-1.2,2.8-2.8,2.8
			C381.5,101.6,380.2,100.4,380.2,98.8C380.2,98.8,380.2,98.8,380.2,98.8z"/>
		<circle class="st5" cx="385.8" cy="90.8" r="1.6"/>
		<path class="st1" d="M393.8,100.1c0,0,9.3,8.8,7.3,11.4s-14.6-4.1-27.7-13.6c-13.1-9.6-22.4-19.5-19.1-22.2c3.3-2.6,13.6,4,13.6,4
			l2-1.3c0,0-17.1-10.5-20.4-6.9s9,16.9,22.7,27.9s29.6,18.8,33.4,15.7c3.8-3-10.9-17.2-10.9-17.5L393.8,100.1z"/>
		<path class="st5" d="M390.5,84c3.3,4.1,4.2,9.6,2.5,14.5c-0.5,1.4-1.2,2.7-2.1,3.9c-1.5,2-2.9,2.9-3,2.7c-0.1-0.2,1-1.2,2.2-3.2
			c3.4-5.3,3.2-12.1-0.4-17.3c-1.3-2-2.5-3-2.3-3.1C387.5,81.3,388.9,82,390.5,84z"/>
		<path class="st1" d="M404.5,80.2C404.5,80.2,404.5,80.2,404.5,80.2c-3.4,0.1-6.1-2.6-6.2-5.9c-0.1-3.3,2.6-6,5.9-6.1
			c3.3-0.1,6,2.6,6.1,5.9C410.4,77.3,407.8,80.1,404.5,80.2z"/>
		<path class="st0" d="M401.4,72.9c-0.6,0-1-0.4-1-1s0.4-1,1-1s1,0.4,1,1S402,72.9,401.4,72.9z"/>
		<circle class="st0" cx="399.9" cy="74.2" r="0.6"/>
		<path class="st0" d="M401.4,76.1c0,0.1-0.1,0.2-0.2,0.2c0,0-0.1,0-0.1,0c-0.1,0-0.2-0.1-0.2-0.3c0-0.1,0.1-0.2,0.3-0.2
			C401.4,75.9,401.4,76,401.4,76.1z"/>
	</g>
	<g id="freepik--Plant--inject-67">
		<path class="st6" d="M65.5,435.7c-5.3-3.9-8.6-9.9-9-16.5c-0.2-6.6,2.9-12.8,8.4-16.5c5.6-3.5,12.8-3.5,18.3,0.1
			c5,3.5,7.6,9.9,7.4,16s-3.2,13.6-8.8,16.9"/>
		<path class="st7" d="M72.8,435c0-0.9,0-2.2,0-3.8c0-3.2,0-7.7,0.3-12.6s0.5-9.4,0.8-12.6c0.1-1.6,0.3-2.9,0.4-3.8
			c0-0.5,0.1-0.9,0.2-1.4c0.1,0.5,0.1,0.9,0,1.4c-0.1,1-0.1,2.3-0.2,3.8c-0.2,3.2-0.5,7.7-0.7,12.6s-0.3,9.4-0.4,12.6
			c0,1.5-0.1,2.8-0.1,3.8c0,0.5,0,0.9-0.1,1.4C72.8,435.9,72.8,435.5,72.8,435z"/>
		<path class="st7" d="M90.8,417.1c1.1-0.1,2-0.1,2,0.1s-0.8,0.3-1.9,0.4s-2,0-2-0.1C88.9,417.4,89.7,417.2,90.8,417.1z"/>
		<path class="st7" d="M90.1,411.1c0.9-0.4,1.6-0.6,1.7-0.5s-0.6,0.6-1.5,1s-1.6,0.6-1.7,0.5C88.5,411.9,89.2,411.4,90.1,411.1z"/>
		<path class="st7" d="M87.3,406.5c0.9-0.7,1.6-1.3,1.7-1.2s-0.5,0.9-1.4,1.6s-1.8,1.1-1.8,1C85.7,407.8,86.4,407.3,87.3,406.5z"/>
		<path class="st7" d="M83.3,402.4c0.4-0.9,0.8-1.5,0.9-1.4s-0.1,0.8-0.4,1.6s-0.8,1.5-0.9,1.4C82.8,404,83,403.3,83.3,402.4z"/>
		<path class="st7" d="M78.8,399.6c0.3-0.9,0.5-1.7,0.7-1.6s0.1,0.8-0.2,1.8s-0.7,1.6-0.9,1.6S78.5,400.5,78.8,399.6z"/>
		<path class="st7" d="M71.7,399.4c0.2,0.7,0.3,1.3,0.2,1.3s-0.4-0.5-0.7-1.1s-0.3-1.3-0.2-1.3C71.1,398.2,71.4,398.7,71.7,399.4z"
			/>
		<path class="st7" d="M66.6,401.4c0.5,0.5,0.9,1,0.8,1.1s-0.6-0.2-1.1-0.7s-0.9-1-0.8-1.1C65.5,400.5,66.1,400.9,66.6,401.4z"/>
		<path class="st7" d="M61.8,404.3c0.6,0.4,1.1,0.9,1,1s-0.6-0.1-1.3-0.5s-1.1-0.9-1-1C60.7,403.7,61.2,403.9,61.8,404.3z"/>
		<path class="st7" d="M58.8,408.9c0.9,0.4,1.6,0.8,1.5,0.9s-0.8-0.1-1.7-0.5s-1.6-0.8-1.5-0.9C57.2,408.4,57.9,408.6,58.8,408.9z"
			/>
		<path class="st7" d="M57.4,413.5c0.9,0.1,1.6,0.3,1.5,0.5s-0.8,0.2-1.6,0.1s-1.5-0.3-1.5-0.5C55.8,413.5,56.5,413.4,57.4,413.5z"
			/>
		<path class="st7" d="M56.4,419c0.9-0.4,1.6-0.6,1.6-0.4s-0.6,0.5-1.4,0.9s-1.6,0.6-1.7,0.4C55,419.8,55.6,419.3,56.4,419z"/>
		<path class="st7" d="M57.4,424.1c0.9-0.6,1.6-1.2,1.7-1.1s-0.5,0.9-1.5,1.5s-2,0.9-2,0.7C55.6,425.2,56.5,424.7,57.4,424.1z"/>
		<path class="st7" d="M59.7,428.8c0.7-0.7,1.3-1.3,1.4-1.3s-0.3,0.9-1,1.6s-1.5,1.2-1.5,1.1C58.4,430.1,59,429.5,59.7,428.8z"/>
		<path class="st7" d="M87.2,431.5c1,0.5,1.8,1.1,1.7,1.2s-1-0.2-2-0.7s-1.8-1.1-1.8-1.2C85.3,430.7,86.2,431,87.2,431.5z"/>
		<path class="st7" d="M89.2,426.8c0.8,0.4,1.4,0.8,1.4,0.9s-0.8-0.1-1.6-0.5s-1.5-0.8-1.4-0.9C87.7,426.2,88.4,426.4,89.2,426.8z"
			/>
		<path class="st7" d="M91.2,422.4c1,0.1,1.7,0.4,1.7,0.5s-0.8,0.1-1.8,0s-1.7-0.4-1.7-0.5C89.4,422.3,90.3,422.3,91.2,422.4z"/>
		<path class="st7" d="M85.3,420.3c1,0.1,1.7,0.2,1.8,0.3s-0.8,0.3-1.8,0.2s-1.7-0.5-1.7-0.6C83.6,420.1,84.4,420.2,85.3,420.3z"/>
		<path class="st7" d="M80.1,415.4c0.8,0.1,1.4,0.1,1.4,0.3s-0.6,0.3-1.4,0.2s-1.4-0.4-1.4-0.5C78.7,415.2,79.3,415.3,80.1,415.4z"
			/>
		<path class="st7" d="M79,410.8c0.8-0.2,1.4-0.4,1.5-0.2s-0.5,0.5-1.3,0.7s-1.5,0.4-1.5,0.2C77.7,411.3,78.2,411,79,410.8z"/>
		<path class="st7" d="M76.3,406.5c0.3-0.5,0.5-0.9,0.7-0.9s0.1,0.6-0.2,1.1s-0.8,0.9-0.9,0.8S76.1,407,76.3,406.5z"/>
		<path class="st7" d="M79.4,423.7c0.3,0.1,0.7,0.2,1,0.4l-0.1,0.3c-0.2-0.1-0.2-0.3-0.2-0.3s0.1,0,0.3,0l-0.1,0.3
			c-0.3,0-0.7-0.1-1-0.1c-0.7-0.2-1.3-0.4-1.3-0.6C78.1,423.5,78.7,423.5,79.4,423.7z"/>
		<path class="st7" d="M78.9,431c0.9,0.4,1.7,0.8,1.6,0.9s-0.9-0.1-1.8-0.4s-1.6-0.8-1.6-0.9C77.1,430.4,77.9,430.6,78.9,431z"/>
		<path class="st7" d="M83.8,427.6c0.6,0.2,1.1,0.5,1.1,0.6s-0.6,0.1-1.2-0.1s-1.1-0.5-1.1-0.6C82.6,427.4,83.2,427.4,83.8,427.6z"
			/>
		<path class="st7" d="M83.8,412.7c0.9-0.3,1.7-0.6,1.8-0.4s-0.6,0.6-1.6,0.9s-1.8,0.4-1.8,0.3C82.1,413.3,82.9,413,83.8,412.7z"/>
		<path class="st7" d="M70.2,412.5c0.6,0.4,1.1,0.9,1,1s-0.7-0.1-1.3-0.6s-1.1-0.9-1-1C68.9,411.8,69.5,412.1,70.2,412.5z"/>
		<path class="st7" d="M69.3,418.9c0.6,0.1,1.1,0.4,1.1,0.5s-0.6,0.1-1.2,0s-1.1-0.4-1.1-0.5C68.1,418.7,68.7,418.7,69.3,418.9z"/>
		<path class="st7" d="M68.6,425.7c0.8-0.4,1.5-0.6,1.6-0.5s-0.5,0.5-1.4,0.9s-1.5,0.6-1.6,0.5S67.8,426.1,68.6,425.7z"/>
		<path class="st7" d="M69.6,433.1c0.4-0.6,0.9-0.9,1-0.8s-0.2,0.6-0.6,1.2s-0.9,0.9-1,0.8C68.9,434.1,69.2,433.6,69.6,433.1z"/>
		<path class="st7" d="M70.3,407.1c0.5,0.2,0.8,0.5,0.8,0.6s-0.5,0.1-1-0.1s-0.8-0.7-0.7-0.8S69.9,406.9,70.3,407.1z"/>
		<path class="st7" d="M64.3,413.9c0.8,0.1,1.4,0.2,1.4,0.3s-0.7,0.3-1.5,0.2s-1.4-0.4-1.4-0.6C62.9,413.7,63.5,413.8,64.3,413.9z"
			/>
		<path class="st7" d="M65.7,407.9c0.8,0.3,1.5,0.5,1.5,0.6s-0.8,0.1-1.6-0.1s-1.5-0.7-1.4-0.8C64.2,407.4,64.9,407.6,65.7,407.9z"
			/>
		<path class="st7" d="M63.6,423c0.7-0.2,1.5-0.3,2.2-0.3c-1.3,0.8-2.9,1.1-4.4,0.8C62.1,423.2,62.9,423.1,63.6,423z"/>
		<path class="st7" d="M65.1,431.2c0.7-0.7,1.3-1.3,1.5-1.2s-0.3,0.8-1.1,1.6s-1.5,1.2-1.6,1.1C63.8,432.5,64.4,431.9,65.1,431.2z"
			/>
		<path class="st7" d="M74.9,400.3c0.4,0.2,0.7,0.3,1,0.5c1.2,0.7,2.4,1.6,3.4,2.7c3.3,3.5,5.4,8,5.9,12.8c0.2,2.6,0.1,5.3-0.4,7.8
			c-0.4,2.1-0.9,4.2-1.6,6.2c-0.5,1.7-1.1,3.1-1.4,4.1c-0.2,0.5-0.4,1-0.6,1.4c0.1-0.5,0.3-1,0.4-1.5c0.3-1,0.8-2.4,1.3-4.1
			c0.6-2,1.1-4.1,1.4-6.2c0.5-2.5,0.6-5.1,0.3-7.7c-0.5-4.7-2.5-9.1-5.7-12.6c-1.4-1.4-2.9-2.6-4.6-3.6
			C74.6,400.1,74.7,400.1,74.9,400.3z"/>
		<path class="st7" d="M66.6,434.7c-0.3-0.5-0.5-1-0.9-1.7s-0.7-1.5-1-2.4c-1.7-4.7-2.2-9.7-1.6-14.6c0.4-2.7,1.1-5.3,2.3-7.8
			c1-2,2.3-3.8,4-5.3c1.1-1,2.5-1.7,3.9-2.3c0.4-0.1,0.8-0.2,1.2-0.3c0.1,0,0.3,0,0.4,0c0,0-0.5,0.1-1.5,0.5
			c-1.4,0.6-2.6,1.4-3.7,2.3c-1.6,1.5-2.8,3.3-3.8,5.3c-1.1,2.4-1.9,5-2.2,7.7c-0.6,4.8-0.2,9.8,1.4,14.4c0.7,1.9,1.5,3.8,2.3,5.6
			C67.1,435.7,66.8,435.2,66.6,434.7z"/>
		<polygon class="st7" points="87.6,440.6 58.7,440.6 58.9,434.9 87.6,434.9 		"/>
		<polygon class="st7" points="60.9,437.9 62.6,455.3 83.5,455.3 85.2,437.8 		"/>
		<path class="st8" d="M73.2,440.4c8,0,14.4,0.1,14.4,0.3s-6.4,0.3-14.4,0.3s-14.4-0.1-14.4-0.3C58.7,440.6,65.2,440.4,73.2,440.4z"
			/>
		<path class="st8" d="M64.8,449.5h-0.3c1.7-1.9,3.6-3.6,5.6-5.1l0.2-0.1l0.1,0.1l2.5,2.2l2.9,2.6h-0.3l4.9-3.9l0.2-0.1l0.1,0.2
			l2.3,3.1c0.3,0.4,0.6,0.8,0.8,1.2c-0.4-0.3-0.7-0.7-1-1.1l-2.5-3h0.3l-4.8,4l-0.2,0.1l-0.2-0.1l-3-2.6l-2.5-2.2h0.3
			c-2,1.5-3.9,3.1-5.6,4.9l-0.1,0.1l-0.1-0.1c-0.8-0.8-1.6-1.7-2.2-2.6c-0.3-0.3-0.5-0.7-0.6-1.1C62.6,447.3,63.7,448.4,64.8,449.5z
			"/>
	</g>
	<g id="freepik--Icons--inject-67">
		<path class="st6" d="M397,179.9c0-0.3,0-0.7,0-1.3c-0.1-1.2-0.1-2.8-0.1-4.9c0-4.3-0.1-10.5-0.1-18v-0.1l0.1-0.1l21.2-12.3
			l0.2-0.1l0.2,0.1l21.2,12.2l0.2,0.3l0,0v6.4c0,2.1,0,4.2,0,6.2c0,4.1,0,8.1,0,11.9v0.2l-0.2,0.1l-21.2,12.2l-0.1,0.1l-0.1-0.1
			l-15.5-9.1l-4.2-2.5l-1.1-0.6c-0.1-0.1-0.2-0.1-0.3-0.2c0.1,0.1,0.3,0.1,0.4,0.2l1.1,0.6l4.3,2.4l15.5,8.8h-0.3l21.2-12.3
			l-0.2,0.3c0-3.8,0-7.8,0-11.9v-12.6l0,0c0-0.1,0.3,0.6,0.2,0.3l-21.2-12.3h0.3L397.1,156l0.1-0.2c0,7.5-0.1,13.6-0.1,17.8
			c-0.1,2.1-0.1,3.7-0.1,4.9C397,179,397,179.5,397,179.9c0.1,0.1,0.1,0.2,0,0.4C397,180.1,397,180,397,179.9z"/>
		<path class="st6" d="M398.9,156.6l4.6,2.5c3.8,2.2,9.1,5.2,15,8.6c-0.7,0-0.2,0-0.3,0l0,0l0,0h0.1l0.1-0.1l0.3-0.2l0.6-0.3
			l1.1-0.6l2.1-1.2l4-2.3l6.8-3.8l4.6-2.5c0.6-0.3,1.1-0.6,1.7-0.9c-0.5,0.4-1,0.8-1.6,1.1l-4.5,2.7l-6.7,3.9l-4,2.3l-2.1,1.2
			l-1.1,0.6L419,168l-0.4,0.2l-0.1,0.1h-0.1l0,0l0,0c-0.2,0,0.3,0-0.4,0c-5.9-3.4-11.1-6.5-14.9-8.7l-4.5-2.7
			c-0.6-0.3-1.1-0.7-1.6-1.1C397.6,156,398.3,156.2,398.9,156.6z"/>
		<path class="st6" d="M417.9,180c0-6.7,0.1-12.2,0.3-12.2c0.2,0,0.4,5.5,0.4,12.2s-0.1,12.2-0.4,12.2
			C418,192.2,417.9,186.7,417.9,180z"/>
		<path class="st6" d="M281.9,59.5c0.5-0.5,1.1-1.2,2.1-2.1s2.1-2,3.6-3.1c1.7-1.3,3.4-2.5,5.2-3.5c1.1-0.6,2.2-1.1,3.4-1.5
			c1.3-0.5,2.6-0.8,4-0.8c0.8,0,1.5,0.2,2.2,0.5c0.7,0.4,1.3,1,1.7,1.8c0.3,0.7,0.5,1.5,0.5,2.3c0,0.8-0.1,1.6-0.3,2.4
			c-0.4,1.6-0.9,3.1-1.6,4.5c-0.7,1.5-1.6,2.9-2.5,4.3c-3.9,5.8-8.7,10.8-14.4,14.8c-1.4,1-2.8,1.8-4.2,2.6
			c-1.4,0.8-2.9,1.3-4.5,1.8c-0.8,0.2-1.6,0.3-2.4,0.3c-0.8,0-1.6-0.1-2.4-0.4c-0.8-0.3-1.4-0.9-1.8-1.6c-0.3-0.7-0.5-1.4-0.6-2.2
			c0-1.4,0.2-2.7,0.6-4c0.4-1.2,0.9-2.3,1.4-3.4c1-1.9,2.1-3.7,3.3-5.3c0.9-1.3,1.9-2.5,3-3.7c0.9-1,1.6-1.7,2.1-2.2
			s0.7-0.8,0.8-0.7c0.1,0.1-0.9,1.1-2.5,3.1c-0.8,1-1.8,2.2-2.8,3.8c-1.2,1.7-2.2,3.5-3.1,5.3c-0.5,1.1-1,2.2-1.3,3.3
			c-0.4,1.2-0.6,2.4-0.5,3.7c0,0.6,0.2,1.2,0.5,1.8c0.3,0.5,0.8,0.9,1.3,1.2c0.6,0.2,1.3,0.3,1.9,0.3c0.7,0,1.4-0.1,2.1-0.3
			c1.5-0.4,2.9-1,4.2-1.7c1.4-0.8,2.8-1.6,4.1-2.5c5.5-4,10.3-8.9,14.1-14.5c0.9-1.3,1.7-2.7,2.4-4.2c0.7-1.4,1.2-2.8,1.6-4.3
			c0.2-0.7,0.3-1.4,0.3-2.1c0-0.7-0.1-1.3-0.4-1.9c-0.2-0.6-0.7-1-1.2-1.3c-0.6-0.3-1.2-0.4-1.8-0.4c-1.3,0-2.5,0.2-3.7,0.7
			c-1.1,0.4-2.2,0.9-3.3,1.4c-1.8,1-3.6,2.1-5.2,3.3c-1.5,1.1-2.7,2.1-3.7,2.9c-1.9,1.7-2.9,2.7-3,2.6
			C281.2,60.3,281.4,60,281.9,59.5z"/>
		<path class="st6" d="M294.7,64.5c0.2,0.6,0.5,1.5,0.9,2.8s0.7,2.7,1,4.5c0.3,2,0.5,4,0.5,6.1c0,1.2-0.1,2.4-0.3,3.6
			c-0.2,1.3-0.6,2.6-1.3,3.7c-0.4,0.6-0.9,1.2-1.5,1.6c-0.7,0.4-1.4,0.7-2.2,0.6c-0.8,0-1.6-0.2-2.3-0.6c-0.7-0.3-1.3-0.8-1.9-1.3
			c-1.2-1-2.3-2.1-3.2-3.4c-1-1.3-1.8-2.6-2.6-4.1c-3.2-5.9-5.3-12.4-6.1-19.1c-0.2-1.6-0.3-3.2-0.2-4.8c0-1.6,0.2-3.1,0.6-4.6
			c0.2-0.7,0.5-1.5,0.9-2.2c0.4-0.7,0.9-1.2,1.5-1.7c0.6-0.5,1.4-0.7,2.2-0.8c0.7,0,1.5,0.2,2.1,0.5c1.2,0.6,2.3,1.4,3.2,2.3
			c0.8,0.9,1.6,1.8,2.3,2.7c1.2,1.7,2.2,3.4,3.1,5.3c0.7,1.4,1.3,2.8,1.8,4.2c0.4,1.2,0.7,2.1,0.9,2.7c0.1,0.3,0.2,0.7,0.2,1
			c-0.1,0-0.5-1.3-1.5-3.6c-0.5-1.1-1.1-2.5-1.9-4.1c-0.9-1.8-2-3.5-3.2-5c-0.7-0.9-1.4-1.8-2.3-2.6c-0.9-0.9-1.9-1.6-3-2.1
			c-0.5-0.2-1.1-0.4-1.7-0.3c-0.6,0-1.2,0.2-1.6,0.6c-0.5,0.4-0.9,0.9-1.2,1.5c-0.3,0.6-0.6,1.3-0.7,1.9c-0.4,1.4-0.5,2.9-0.6,4.4
			c0,1.6,0.1,3.1,0.2,4.7c0.4,3.3,1.1,6.5,2.1,9.6c1,3.1,2.3,6.1,3.8,9c0.7,1.4,1.6,2.7,2.5,3.9c0.9,1.2,1.9,2.3,3,3.2
			c0.5,0.5,1.1,0.8,1.7,1.2c0.6,0.3,1.2,0.5,1.8,0.5c0.6,0,1.2-0.1,1.7-0.5c0.5-0.3,0.9-0.8,1.2-1.3c0.6-1.1,1-2.2,1.2-3.4
			c0.2-1.1,0.3-2.3,0.4-3.4c0.1-2-0.1-4-0.3-6c-0.2-1.8-0.5-3.3-0.8-4.5c-0.5-2.4-0.9-3.8-0.8-3.8C294.5,63.9,294.6,64.2,294.7,64.5
			z"/>
		<path class="st6" d="M290.8,57.5c0.6,0.1,1.6,0.4,2.8,0.7c1.2,0.4,2.7,0.8,4.3,1.5c1.9,0.8,3.7,1.7,5.4,2.8c1,0.6,2,1.3,2.9,2.1
			c1,0.8,1.9,1.9,2.5,3c0.3,0.7,0.5,1.4,0.6,2.1c0,0.8-0.2,1.6-0.6,2.2c-0.4,0.6-1,1.2-1.7,1.6c-0.7,0.4-1.4,0.7-2.1,1
			c-1.5,0.5-3,0.8-4.6,0.9c-1.6,0.1-3.2,0.2-4.8,0.1c-6.7-0.4-13.3-2-19.4-4.9c-1.5-0.7-2.9-1.5-4.2-2.3c-1.3-0.9-2.5-1.9-3.6-3
			c-0.5-0.6-1-1.2-1.4-1.8c-0.4-0.7-0.7-1.4-0.7-2.2c-0.1-0.8,0.1-1.6,0.5-2.3c0.4-0.6,0.9-1.1,1.5-1.5c1.1-0.7,2.4-1.2,3.6-1.5
			c1.2-0.3,2.3-0.4,3.5-0.5c2-0.1,4.1-0.1,6.1,0.1c1.8,0.2,3.3,0.5,4.5,0.7c1.2,0.3,2.2,0.5,2.8,0.7c0.3,0.1,0.7,0.2,1,0.3
			c0,0.1-1.4-0.2-3.8-0.6c-1.2-0.2-2.7-0.4-4.5-0.5c-2-0.2-4-0.2-6,0c-1.1,0.1-2.3,0.3-3.4,0.6c-1.2,0.3-2.3,0.7-3.3,1.4
			c-0.5,0.3-0.9,0.8-1.2,1.3c-0.3,0.5-0.4,1.1-0.4,1.7c0.1,0.6,0.3,1.2,0.6,1.8c0.4,0.6,0.8,1.1,1.3,1.6c1,1.1,2.2,2,3.4,2.8
			c1.3,0.8,2.7,1.6,4.1,2.3c6,2.8,12.4,4.4,19,4.8c1.5,0.1,3.1,0.1,4.6,0c1.5-0.1,2.9-0.4,4.3-0.8c0.7-0.2,1.3-0.5,1.9-0.8
			c0.6-0.3,1-0.8,1.4-1.3c0.3-0.5,0.5-1.1,0.5-1.7c0-0.6-0.2-1.2-0.5-1.7c-0.6-1.1-1.3-2-2.3-2.8c-0.8-0.8-1.8-1.5-2.7-2.1
			c-1.7-1.1-3.4-2-5.2-2.9c-1.6-0.7-3-1.3-4.2-1.7c-2.4-0.8-3.7-1.2-3.7-1.3C290.2,57.3,290.5,57.4,290.8,57.5z"/>
		<path class="st6" d="M283,65.2c0.5-2,2.5-3.1,4.4-2.6c0,0,0,0,0,0c2,0.5,3.1,2.5,2.6,4.4c-0.5,2-2.5,3.1-4.4,2.6
			S282.5,67.1,283,65.2C283,65.2,283,65.2,283,65.2z"/>
		<path class="st6" d="M202,52.7l-51.9,11.2l-7.2,43.7l4.2-2c11-6.2,21.9-1.3,21.9-1.3l0,0c0.4,0.9,1.4,1.4,2.3,1.3l4.5-0.5
			c0.8-0.1,1.5-0.6,1.8-1.3l0,0c10.8-5.9,29.2,1.4,29.2,1.4l0.1-3.4L202,52.7z"/>
		<path class="st2" d="M177.6,74.5l-3.9,29.8c17.8-11.6,36.1-1.2,36.1-1.2v-6.2C208.3,90.7,177.6,74.5,177.6,74.5z"/>
		<path class="st0" d="M211.9,98.2c-18.9-14.5-38.2,6.1-38.2,6.1l0.6-44.7c15.8-23.6,37.9-7.5,37.9-7.5L211.9,98.2z"/>
		<path class="st2" d="M174.3,61.2L144.4,65l-2.9,40.8c13.1-12.9,32.1-1.5,32.1-1.5L174.3,61.2z"/>
		<path class="st0" d="M173.7,104.3c-10.9-17.7-32.3-14.7-32.3-14.7l3.7-41l8.7-1.4c13.7-1.7,20.5,12.5,20.5,12.5L173.7,104.3z"/>
		<path class="st0" d="M66,140l3.1,0.5c1.5,0.2,2.7,1.3,3.3,2.7l11.2,31.1c0.2,0.6,0.5,1.2,0.9,1.7c2.1,2.8,6.1,3.4,8.9,1.3
			l14.1-10.6c0.5-0.4,0.9-0.8,1.3-1.3c2-2.7,1.4-6.4-1.3-8.4l-26.6-19.9c-1.2-0.9-1.8-2.3-1.6-3.7l0.4-3.6L66,140z"/>
		<path class="st7" d="M66,139.9v-0.1l2.4,0.4c0.4,0.1,0.8,0.1,1.3,0.2c0.4,0.1,0.8,0.3,1.2,0.6c0.8,0.5,1.4,1.3,1.6,2.2
			c0.4,0.9,0.7,1.8,1,2.7l4.3,11.8c1.5,4.2,3.1,8.7,4.8,13.4c0.2,0.6,0.4,1.2,0.6,1.8l0.3,0.9c0.1,0.3,0.2,0.6,0.4,0.9
			c0.3,0.6,0.6,1.1,1,1.6l0.3,0.3l0.2,0.2l0.2,0.1l0.4,0.3l0.4,0.3c1.1,0.7,2.4,1,3.6,1c1.3-0.1,2.6-0.5,3.6-1.4l11.3-8.4l2.7-2
			c0,0,0.1,0,0.1-0.1c2.6-2.1,3-5.8,1-8.4c-0.7-0.8-1.5-1.4-2.3-2c-0.8-0.6-1.6-1.2-2.4-1.8l-4.6-3.4l-8.3-6.2l-6.8-5.1l-2.8-2.1
			c-0.2-0.2-0.4-0.3-0.6-0.5c-0.2-0.2-0.4-0.4-0.5-0.6c-0.3-0.4-0.5-0.8-0.7-1.2c-0.1-0.4-0.2-0.8-0.2-1.2c0-0.4,0-0.7,0.1-1.1
			c0.1-0.7,0.1-1.2,0.2-1.7c0.1-0.9,0.1-1.3,0.1-1.4c0,0.1,0,0.5-0.1,1.4l-0.1,1.7c0,0.4-0.1,0.7-0.1,1.1c0,0.4,0.1,0.8,0.2,1.2
			c0.2,0.4,0.4,0.8,0.7,1.2c0.2,0.2,0.3,0.4,0.5,0.5c0.2,0.2,0.4,0.3,0.6,0.5l2.8,2.1l6.8,5.1l8.3,6.2l4.6,3.4l2.4,1.8l1.2,0.9
			c0.2,0.2,0.4,0.3,0.6,0.5l0.5,0.6c0,0.1,0.1,0.1,0.1,0.2c2,2.7,1.5,6.6-1.2,8.6l-2.7,2l-11.2,8.4c-1.1,0.8-2.4,1.3-3.7,1.4
			c-1.3,0.1-2.6-0.3-3.8-1l-0.4-0.3l-0.4-0.3l-0.2-0.2l-0.2-0.2l-0.3-0.4c-0.4-0.5-0.8-1-1-1.6c-0.1-0.3-0.2-0.6-0.3-0.9
			s-0.2-0.6-0.3-0.9l-0.6-1.8c-1.7-4.7-3.3-9.2-4.8-13.4s-2.9-8.2-4.2-11.9c-0.4-0.9-0.7-1.8-1-2.7c-0.3-0.8-0.8-1.6-1.6-2.1
			c-0.4-0.2-0.7-0.4-1.2-0.6c-0.4-0.1-0.8-0.1-1.2-0.2L66,139.9l-0.1,0L66,139.9l13.6-10.2L66,139.9z"/>
		<path class="st6" d="M85.2,173.2c0.2,0.4,0.4,0.8,0.7,1.2c1.7,2.3,4.9,2.7,7.2,1l12.6-9.5c0.4-0.3,0.7-0.6,1-1
			c1.7-2.2,1.3-5.5-0.9-7.2L89,144.8c-1.7,0.4-3.1,1.5-4,3c-1,1.4-1.7,3-2.7,4.4c-1.1,1.4-2.5,2.5-4.1,3.3L85.2,173.2z"/>
		<path class="st7" d="M67.1,139.8l0.8-0.2c0.3-0.1,0.6-0.2,1-0.3s0.8-0.3,1.2-0.5s0.9-0.4,1.3-0.6c2-1,3.7-2.4,5.3-4.1
			c0.3-0.4,0.6-0.8,0.9-1.1s0.5-0.7,0.8-1s0.4-0.6,0.6-0.9s0.3-0.5,0.4-0.7c0.1-0.2,0.2-0.4,0.4-0.6c-0.1,0.2-0.2,0.4-0.3,0.6
			c-0.1,0.2-0.2,0.4-0.4,0.7s-0.3,0.6-0.5,0.9c-0.2,0.4-0.5,0.7-0.7,1.1c-0.3,0.4-0.6,0.7-0.9,1.1c-0.8,0.8-1.6,1.6-2.5,2.3
			c-0.9,0.7-1.8,1.3-2.8,1.8c-0.5,0.2-0.9,0.4-1.3,0.6s-0.8,0.3-1.2,0.4c-0.3,0.1-0.7,0.2-1,0.3C67.6,139.8,67.4,139.8,67.1,139.8
			c-0.2,0.2-0.4,0.2-0.6,0.2C66.7,139.9,66.9,139.8,67.1,139.8z"/>
		<g class="st9">
			<path class="st5" d="M103.2,164.6c0.3-0.8,0.3-1.6,0.2-2.4c-0.1-0.6-0.3-1.1-0.6-1.6c-0.3-0.6-0.7-1.1-1.2-1.6
				c-1.2-1.1-2.4-2.1-3.6-3c-5.3-4.3-9.4-7.9-9.2-8.1s4.6,3,9.9,7.3c1.3,1,2.5,2.1,3.7,3.2c0.5,0.5,0.9,1.2,1.3,1.8
				c0.3,0.6,0.5,1.2,0.5,1.9c0.1,0.9-0.1,1.9-0.5,2.7c-0.4,0.6-0.8,0.7-0.8,0.7C102.7,165.5,102.9,165.2,103.2,164.6z"/>
		</g>
		<path class="st3" d="M80.9,157.3c0.4-0.1,0.9-0.3,1.5-0.5c0.7-0.3,1.4-0.6,2.1-1.1c0.4-0.3,0.7-0.6,1-0.9c0.3-0.4,0.6-0.8,0.9-1.2
			c0.5-0.9,0.9-1.8,1.4-2.6c0.4-0.7,0.9-1.3,1.5-1.9c0.4-0.4,0.9-0.6,1.4-0.8c0.1,0,0.3-0.1,0.4-0.1h0.1c0,0-0.2,0-0.5,0.2
			c-0.5,0.2-0.9,0.5-1.3,0.8c-0.6,0.5-1,1.2-1.4,1.9c-0.4,0.8-0.8,1.7-1.3,2.6c-0.3,0.4-0.5,0.9-0.9,1.2c-0.3,0.3-0.7,0.7-1.1,0.9
			c-0.7,0.4-1.4,0.8-2.1,1C81.7,157.1,81.2,157.3,80.9,157.3c-0.2,0.1-0.4,0.1-0.6,0.2C80.5,157.4,80.7,157.4,80.9,157.3z"/>
	</g>
	<g id="freepik--Books--inject-67">
		<polygon class="st0" points="327.4,429.4 328.1,390.4 349.3,390.4 348.9,429.4 		"/>
		<path class="st1" d="M339.2,396.9c5.5,0,9.9,0.2,9.9,0.4s-4.4,0.4-9.9,0.4c-5.5,0-9.9-0.2-9.9-0.4
			C329.4,397.1,333.8,396.9,339.2,396.9z"/>
		<path class="st1" d="M339.2,402.9c5.5,0,9.9,0.2,9.9,0.4s-4.4,0.4-9.9,0.4c-5.5,0-9.9-0.2-9.9-0.4
			C329.4,403.1,333.8,402.9,339.2,402.9z"/>
		<path class="st1" d="M339.2,408.9c5.5,0,9.9,0.2,9.9,0.4s-4.4,0.4-9.9,0.4c-5.5,0-9.9-0.2-9.9-0.4
			C329.4,409.1,333.8,408.9,339.2,408.9z"/>
		<path class="st1" d="M339.2,415c5.5,0,9.9,0.2,9.9,0.4s-4.4,0.4-9.9,0.4c-5.5,0-9.9-0.2-9.9-0.4C329.4,415.2,333.8,415,339.2,415z
			"/>
		<path class="st1" d="M339.2,421c5.5,0,9.9,0.2,9.9,0.4s-4.4,0.4-9.9,0.4c-5.5,0-9.9-0.2-9.9-0.4S333.8,421,339.2,421z"/>
		<path class="st6" d="M351.2,391.5h-15.3l0,0c-3.7,0-6.8,3-6.8,6.8v23.4c0,3.7,3,6.8,6.8,6.8h14.3v2.9H115.7
			c-2.5-15.1-2.9-29.3,0-42.2h235.5V391.5z"/>
		<path class="st3" d="M234.5,410.5h3.9c0.1,0,0.3,0,0.4,0.1c0.3,0.1,0.4,0.4,0.4,0.7c0,0.1,0,0.2,0,0.3c-0.1,0.3-0.2,0.7-0.3,1
			c-0.5,1.6-1.3,3.2-2.5,4.4c-0.8,1-2,1.7-3.4,1.7c-1.4,0-2.6-0.8-3.1-2c-0.8-1.4-1.2-3.1-1.2-4.7c0-1.1,0.2-2.3,0.5-3.4
			c0.4-1.7,1.2-3.2,2.3-4.5c0.8-1.1,2.1-1.8,3.5-1.9c0.5,0,1,0.1,1.5,0.3c1.1,0.6,1.9,1.7,2.3,2.9c0.1,0.1,0.1,0.3,0.1,0.4
			c0,0.1,0,0.3-0.1,0.4c-0.1,0.3-0.4,0.4-0.7,0.4c-0.1,0-0.2,0-0.3,0c-0.3-0.1-0.5-0.3-0.5-0.5V406c-0.1-0.3-0.3-0.6-0.5-0.9
			c-0.4-0.7-1.1-1.1-1.9-1.1c-0.5,0-0.9,0.2-1.3,0.5c-1,0.8-1.7,1.9-2.1,3.1c-0.6,1.4-0.9,2.9-0.9,4.4c0,1.2,0.2,2.4,0.7,3.5
			c0.3,0.9,1.1,1.5,2.1,1.5c0.8-0.1,1.4-0.5,1.9-1.1c0.9-1.1,1.6-2.3,2-3.6c-1.8,0-2.8,0-2.8,0c-0.6-0.1-0.9-0.4-0.9-1
			c0-0.1,0-0.2,0.1-0.3C233.8,410.6,234.2,410.4,234.5,410.5z"/>
		<path class="st3" d="M247.9,402.8c0,0.1,0.1,0.2,0.1,0.3c0.2,0.6,1.1,5.4,2.8,14.6c0,0.1,0,0.1,0,0.2c0,0.2,0,0.3-0.1,0.4
			c-0.1,0.3-0.4,0.4-0.7,0.4h-0.1c-0.3,0-0.6-0.3-0.6-0.6l-0.9-4.8h-4.8l-2.3,4.9c0,0.1,0,0.1-0.1,0.2c-0.2,0.2-0.4,0.4-0.7,0.4
			c-0.2,0-0.3,0-0.5-0.1c-0.2-0.2-0.4-0.4-0.4-0.7c0-0.1,0-0.2,0-0.3c0.1-0.3,0.4-0.9,0.7-1.6c3.4-7.4,5.5-11.7,6.2-13
			c0.1-0.3,0.4-0.6,0.8-0.6C247.4,402.4,247.7,402.5,247.9,402.8z M246.8,406.1l-2.6,5.5h3.7L246.8,406.1z"/>
		<path class="st3" d="M261,418.7h-7.1c-0.2,0-0.3-0.1-0.4-0.1c-0.2-0.2-0.4-0.6-0.4-0.9l0,0c0-0.3,0.7-5.1,2-14.5
			c0-0.1,0-0.2,0-0.3c0.2-0.4,0.6-0.6,1.1-0.5c0,0,0.1,0,0.1,0c0.3,0.1,0.5,0.4,0.4,0.8c-0.1,0.6-0.2,2-0.5,4
			c-0.8,6.2-1.2,9.5-1.3,9.8h6c0.2,0,0.3,0,0.4,0.1c0.3,0.1,0.6,0.4,0.5,0.8c0,0.1,0,0.2,0,0.3C261.7,418.5,261.4,418.7,261,418.7z"
			/>
		<path class="st3" d="M270.7,402.8c0,0.1,0.1,0.2,0.1,0.3c0.2,0.6,1.1,5.4,2.8,14.6c0,0.1,0,0.1,0,0.2c0,0.2,0,0.3-0.1,0.4
			c-0.1,0.3-0.4,0.4-0.7,0.4h-0.1c-0.3,0-0.6-0.3-0.6-0.6l-0.9-4.8h-4.8l-2.3,4.9c0,0.1,0,0.1-0.1,0.2c-0.2,0.2-0.4,0.4-0.7,0.4
			c-0.2,0-0.3-0.1-0.5-0.1c-0.2-0.2-0.4-0.4-0.4-0.7c0-0.1,0-0.2,0-0.3l0.7-1.6c3.5-7.4,5.5-11.7,6.2-13c0.1-0.3,0.4-0.6,0.8-0.6
			C270.3,402.4,270.6,402.5,270.7,402.8z M269.7,406.1l-2.6,5.5h3.7L269.7,406.1z"/>
		<path class="st3" d="M282,411.2c0.6,1.5,1,2.7,1.3,3.6c0.7,2,1.1,3.1,1.1,3.2c0,0.2-0.1,0.3-0.1,0.4c-0.1,0.2-0.4,0.4-0.7,0.4
			c-0.3,0-0.6-0.3-0.7-0.6c-0.1-0.2-0.1-0.3-0.1-0.4c-0.4-0.9-1-2.5-1.9-5l-4,5.5c-0.2,0.3-0.4,0.4-0.8,0.5c-0.2,0-0.3,0-0.4-0.1
			c-0.3-0.1-0.4-0.4-0.4-0.7c0-0.1,0-0.1,0-0.2c0.1-0.3,0.2-0.5,0.4-0.7c1.3-1.7,2.8-3.8,4.5-6.2c-0.2-0.5-0.3-0.9-0.5-1.3
			c-1.5-4.1-2.3-6.1-2.3-6.3c0-0.2,0-0.3,0.1-0.4c0.1-0.3,0.4-0.4,0.7-0.4c0.3,0,0.6,0.2,0.8,0.5l2.4,6.4l4.7-6.4
			c0.2-0.3,0.4-0.4,0.8-0.4c0.1,0,0.3,0,0.4,0.1c0.3,0.1,0.4,0.4,0.4,0.8c0,0.1,0,0.3-0.1,0.4L282,411.2z"/>
		<path class="st3" d="M299.6,402.4c0.1,0,0.3,0,0.4,0.1c0.3,0.1,0.4,0.4,0.5,0.7c-1.2,9.2-1.8,14.1-1.9,14.9
			c-0.2,1.4-0.7,2.7-1.5,3.9c-1.6,2.2-4.6,3-7,1.7c-1.1-0.4-1.9-1.2-2.5-2.2c-0.1-0.1-0.1-0.3-0.1-0.4c0-0.1,0-0.3,0.1-0.4
			c0.1-0.3,0.4-0.4,0.7-0.4c0.3,0,0.5,0.1,0.6,0.4c0.8,1.2,2.2,2,3.6,2.1c1.1,0,2.1-0.5,2.8-1.4c1-1.3,1.5-2.9,1.6-4.5
			c-0.3,0.4-0.6,0.8-1,1.1c-0.7,0.5-1.6,0.8-2.5,0.8c-0.2,0-0.3,0-0.5,0c-1.1-0.2-2.1-0.9-2.7-1.9c-0.8-1.4-1.2-3.1-1.2-4.7
			c0-0.9,0-1.8,0.1-2.7c0.1-1.4,0.5-3.5,1-6.1c0-0.1,0-0.2,0.1-0.2c0.1-0.3,0.4-0.6,0.8-0.6c0.1,0,0.3,0,0.4,0.1
			c0.3,0.1,0.4,0.4,0.4,0.7c-0.1,1.1-0.2,2.2-0.4,3.2c-0.3,1.6-0.5,3.3-0.6,4.9c0,1.3,0.2,2.6,0.6,3.9c0.5,1.2,1.2,1.7,2.1,1.7h0.3
			c0.9-0.3,1.6-0.9,2.1-1.7c0.8-1.2,1.4-2.5,1.8-3.9l1.1-8.1c0-0.1,0.1-0.2,0.1-0.4C299,402.6,299.3,402.4,299.6,402.4z"/>
		<path class="st7" d="M123.4,410.4c0-12,0.2-21.6,0.4-21.6s0.4,9.7,0.4,21.6s-0.2,21.6-0.4,21.6S123.4,422.4,123.4,410.4z"/>
		<path class="st7" d="M316.1,410.4c0-12,0.2-21.6,0.4-21.6c0.2,0,0.4,9.7,0.4,21.6s-0.2,21.6-0.4,21.6
			C316.3,432.1,316.1,422.4,316.1,410.4z"/>
		<path class="st7" d="M119.3,410.4c0-12,0.2-21.6,0.4-21.6s0.4,9.7,0.4,21.6s-0.2,21.6-0.4,21.6
			C119.5,432.1,119.3,422.4,119.3,410.4z"/>
		<path class="st7" d="M320,410.4c0-12,0.2-21.6,0.4-21.6c0.2,0,0.4,9.7,0.4,21.6s-0.2,21.6-0.4,21.6
			C320.2,432.1,320,422.4,320,410.4z"/>
		<path class="st1" d="M181.1,396L181.1,396L181.1,396l-24.8,20.2l-0.1-0.3l3.3,0.9l21,5.5h-0.1l19.1-8l5.4-2.2l1.4-0.6l0.4-0.1h0.1
			l-0.1,0.1l-0.4,0.2l-1.4,0.6l-5.6,2.3c-4.6,2-11.2,4.8-19,8.1l0,0l0,0l-21-5.5l-3.3-0.9l-0.3-0.1l0.2-0.2l24.9-20.1v0.1"/>
		<polygon class="st1" points="158.5,414.7 160.2,415.5 158.5,416.3 158.1,418.1 156.9,416.7 155,417 156,415.4 155.2,413.7 
			157,414.1 158.3,412.8 		"/>
		<polygon class="st1" points="182.3,421.9 183.3,422.6 182.1,423 181.8,424.1 181.1,423.2 179.9,423.3 180.6,422.3 180.1,421.2 
			181.3,421.5 182.2,420.7 		"/>
		<polygon class="st1" points="207.8,411.1 208.3,412.5 206.9,412.1 205.7,413 205.7,411.6 204.4,410.8 205.8,410.3 206.2,408.8 
			207.1,410 208.6,409.9 		"/>
		<polygon class="st1" points="146.4,397.5 146.9,398.8 145.5,398.4 144.3,399.4 144.3,397.9 143,397.1 144.4,396.6 144.8,395.2 
			145.7,396.3 147.2,396.2 		"/>
		<polygon class="st1" points="181.6,396.1 182,396.9 181.1,396.7 180.3,397.3 180.3,396.3 179.5,395.8 180.4,395.5 180.6,394.6 
			181.2,395.3 182.1,395.3 		"/>
		<path class="st1" d="M163.1,396.3c10-0.4,18-0.7,18-0.6s-8,0.5-18,0.9s-18,0.7-18,0.6C145.1,397.2,153.2,396.8,163.1,396.3z"/>
		<path class="st7" d="M349.6,411.5c0-10.9,0.1-19.8,0.3-19.8s0.3,8.8,0.3,19.8s-0.1,19.8-0.3,19.8
			C349.7,431.3,349.6,422.4,349.6,411.5z"/>
		<polygon class="st0" points="321,345.8 321.6,313.9 339,313.9 338.6,345.8 		"/>
		<path class="st1" d="M330.7,319.3c2.7-0.1,5.4,0,8.1,0.3c-2.7,0.3-5.4,0.4-8.1,0.3c-2.7,0.1-5.4,0-8.1-0.3
			C325.3,319.3,328,319.2,330.7,319.3z"/>
		<path class="st1" d="M330.7,324.2c2.7-0.1,5.4,0,8.1,0.3c-2.7,0.3-5.4,0.4-8.1,0.3c-2.7,0.1-5.4,0-8.1-0.3
			C325.3,324.2,328,324.1,330.7,324.2z"/>
		<path class="st1" d="M330.7,329.1c2.7-0.1,5.4,0,8.1,0.3c-2.7,0.3-5.4,0.4-8.1,0.3c-2.7,0.1-5.4,0-8.1-0.3
			C325.3,329.1,328,329,330.7,329.1z"/>
		<path class="st1" d="M330.7,334.1c2.7-0.1,5.4,0,8.1,0.3c-2.7,0.3-5.4,0.4-8.1,0.3c-2.7,0.1-5.4,0-8.1-0.3
			C325.3,334.1,328,334,330.7,334.1z"/>
		<path class="st1" d="M330.7,339c2.7-0.1,5.4,0,8.1,0.3c-2.7,0.3-5.4,0.4-8.1,0.3c-2.7,0.1-5.4,0-8.1-0.3
			C325.3,339,328,338.9,330.7,339z"/>
		<path class="st8" d="M340.5,314.8H328c0,0,0,0,0,0c-3,0-5.5,2.5-5.5,5.5v19.1c0,0,0,0,0,0c0,3,2.5,5.5,5.5,5.5h11.6v2.3H148.2
			c-2-12.3-2.4-23.9,0-34.4h192.3V314.8z"/>
		<g>
			<path class="st7" d="M211.6,324c0,0.1,0.1,0.2,0.1,0.2c0.1,0.5,0.9,4.5,2.3,11.9c0,0.1,0,0.1,0,0.2c0,0.1,0,0.2-0.1,0.4
				c-0.1,0.2-0.3,0.4-0.6,0.4h-0.1c-0.3,0-0.5-0.2-0.5-0.5l-0.8-4h-4l-1.9,4l-0.1,0.1c-0.1,0.2-0.4,0.3-0.6,0.3
				c-0.4,0-0.7-0.3-0.7-0.7c0,0,0,0,0,0c0-0.1,0-0.1,0-0.2c0.1-0.3,0.3-0.7,0.6-1.3c2.8-6,4.4-9.6,5-10.7c0.1-0.4,0.6-0.6,0.9-0.4
				C211.3,323.7,211.4,323.8,211.6,324L211.6,324z M210.7,326.7l-2.1,4.5h3L210.7,326.7z"/>
			<path class="st7" d="M215.2,334.7c0-0.1,0-0.2,0-0.3c0-0.1,0-0.2,0.1-0.3c0.1-0.2,0.3-0.3,0.5-0.3c0.3,0,0.5,0.2,0.6,0.4l0.2,0.2
				c0.5,0.8,1.4,1.4,2.3,1.5c1.5,0,2.6-1.2,2.6-2.6l0,0c0-0.6-0.2-1.1-0.5-1.6c-0.4-0.5-0.8-0.8-1.4-1.1l-1.2-0.7
				c-0.3-0.2-0.5-0.4-0.7-0.6c-0.5-0.5-0.8-1.3-0.8-2c0-0.1,0-0.2,0-0.3c0.1-0.8,0.5-1.6,1.1-2.2c0.6-0.6,1.5-0.9,2.3-0.9
				c0.4,0,0.8,0.1,1.1,0.2c0.7,0.2,1.3,0.7,1.8,1.3c0.1,0.1,0.1,0.2,0.1,0.4c0,0.1,0,0.2-0.1,0.3c-0.1,0.2-0.3,0.3-0.5,0.3
				c-0.2,0-0.3,0-0.4-0.2c-0.4-0.6-1.1-1-1.9-1.1c-0.5,0-1,0.2-1.4,0.6c-0.4,0.4-0.7,1-0.7,1.6c0,0.4,0.1,0.7,0.4,1
				c0.4,0.4,0.8,0.7,1.3,1c0.5,0.3,1,0.6,1.5,1c1,0.7,1.6,1.8,1.6,3c0,0.3,0,0.5-0.1,0.8c-0.2,0.9-0.7,1.7-1.4,2.3
				c-0.7,0.6-1.6,0.9-2.6,0.9c-0.6,0-1.2-0.2-1.8-0.5C216.3,336.2,215.6,335.5,215.2,334.7z"/>
			<path class="st7" d="M235.1,324.4c0,0.1,0,0.2-0.1,0.3c-0.1,0.2-0.4,0.3-0.6,0.3h-3.9c-0.9,7.3-1.4,11.1-1.4,11.3v0.1
				c0,0.4-0.4,0.6-0.7,0.6c-0.1,0-0.3,0-0.4-0.1c-0.2-0.2-0.4-0.4-0.3-0.7c0-0.1,0.3-2.7,1-7.9c0.2-1.8,0.4-2.9,0.4-3.3h-3.7
				c-0.1,0-0.3,0-0.4-0.1c-0.3-0.1-0.5-0.3-0.5-0.6c0-0.1,0-0.3,0.1-0.4c0.1-0.2,0.4-0.4,0.6-0.3h9.1c0.1,0,0.2,0,0.3,0.1
				C234.9,323.8,235.1,324.1,235.1,324.4z"/>
			<path class="st7" d="M236.4,336.4c-0.1,0.5-0.3,0.7-0.7,0.7c-0.1,0-0.2,0-0.4-0.1c-0.2-0.2-0.4-0.4-0.4-0.7
				c0.3-2.2,0.8-6.1,1.6-11.9c0-0.1,0.1-0.2,0.2-0.3c0.2-0.2,0.4-0.3,0.7-0.3c0.6-0.1,1.1-0.2,1.7-0.1c0.4,0,0.8,0,1.2,0.1
				c1.4,0.1,2.5,1.3,2.4,2.7c0,0,0,0,0,0c0,0.6-0.1,1.1-0.3,1.6c-0.6,1.6-2,2.7-4.3,3.4l4.8,4.4c0.2,0.2,0.3,0.4,0.3,0.6
				c0,0.1,0,0.2-0.1,0.4c-0.1,0.2-0.3,0.3-0.6,0.3c-0.2,0-0.4-0.1-0.6-0.2c-0.1-0.1-1.8-1.6-5.1-4.6
				C236.7,334.5,236.5,335.9,236.4,336.4z M237.9,325l-0.7,5.2c0.8-0.1,1.6-0.4,2.3-0.8c1.2-0.6,1.9-1.7,1.9-3c0-1-0.8-1.5-2.3-1.5
				C239.1,324.9,238.6,324.9,237.9,325z"/>
			<path class="st7" d="M244.2,331.6c0-1,0.1-1.9,0.4-2.8c0.4-1.4,1-2.6,1.9-3.7c0.7-0.9,1.7-1.4,2.8-1.5c1,0,1.8,0.5,2.4,1.3
				c0.7,1.1,1.2,2.3,1.2,3.6c0.3-0.1,0.6-0.2,0.8-0.4c0.3-0.2,0.7-0.3,1.1-0.3c0.1,0,0.2,0,0.3,0.1c0.2,0.1,0.3,0.3,0.3,0.5
				c0,0.2-0.1,0.5-0.3,0.6c-0.6,0.5-1.4,0.8-2.3,0.9c0,0.6-0.2,1.3-0.3,1.9c-0.3,1.4-1,2.7-1.9,3.8c-0.7,0.9-1.8,1.4-2.9,1.5
				c-0.1,0-0.3,0-0.4,0c-0.9-0.2-1.7-0.7-2.2-1.6C244.5,334.3,244.2,332.9,244.2,331.6z M245.7,331.3c0,0.9,0.1,1.9,0.4,2.7
				c0.4,1,1,1.6,1.8,1.6c0.2,0,0.4-0.1,0.6-0.1c0.8-0.4,1.4-1.1,1.8-1.9c0.6-1.1,1-2.3,1.2-3.5c-0.8,0-1.6-0.3-2.3-0.7
				c-1-0.7-1.7-1.6-2-2.8C246.2,328,245.7,329.6,245.7,331.3z M249.7,325.2c-0.1,0-0.3,0-0.4,0.1c-0.3,0.2-0.5,0.7-0.5,1.1
				c0,0.1,0,0.2,0,0.3c0.1,0.7,0.6,1.3,1.2,1.6c0.4,0.3,1,0.5,1.5,0.5c0-0.5-0.1-0.9-0.2-1.4C251,325.9,250.4,325.2,249.7,325.2
				L249.7,325.2z"/>
			<path class="st7" d="M263.7,336.4c-0.1,0.4-0.3,0.7-0.7,0.7c-0.3,0-0.6-0.2-0.7-0.5l-4.4-10c0,0.5-0.1,1-0.2,1.6
				c-0.6,4.8-0.9,7.5-1,8.2c-0.1,0.5-0.3,0.7-0.7,0.7c-0.1,0-0.3,0-0.4-0.1c-0.2-0.2-0.4-0.4-0.3-0.7c1-7.9,1.6-11.9,1.6-11.9
				c0-0.1,0.1-0.2,0.1-0.3c0.1-0.2,0.4-0.4,0.6-0.4c0.3,0,0.6,0.1,0.7,0.3l4.4,9.8l1.3-9.4c0-0.1,0-0.2,0.1-0.3
				c0.1-0.2,0.3-0.4,0.6-0.4c0.1,0,0.2,0,0.3,0.1c0.2,0.1,0.3,0.3,0.3,0.6c0,0.2,0,0.4-0.1,0.6C264.4,331.8,263.9,335.6,263.7,336.4
				z"/>
			<path class="st7" d="M266.8,331.6c0-1,0.1-1.9,0.4-2.8c0.4-1.4,1-2.6,1.9-3.7c0.7-0.9,1.7-1.4,2.8-1.5c1,0,1.8,0.5,2.4,1.3
				c0.7,1.1,1.2,2.3,1.2,3.6c0.3-0.1,0.6-0.2,0.8-0.4c0.3-0.2,0.7-0.3,1.1-0.3c0.1,0,0.2,0,0.3,0.1c0.2,0.1,0.3,0.3,0.3,0.5
				c0,0.2-0.1,0.5-0.3,0.6c-0.6,0.5-1.4,0.8-2.3,0.9c0,0.6-0.2,1.3-0.3,1.9c-0.3,1.4-1,2.7-1.9,3.8c-0.7,0.9-1.8,1.4-2.9,1.5
				c-0.1,0-0.3,0-0.4,0c-0.9-0.2-1.7-0.7-2.2-1.6C267.1,334.3,266.7,332.9,266.8,331.6z M268.2,331.3c0,0.9,0.1,1.9,0.5,2.7
				c0.4,1,1,1.6,1.8,1.6c0.2,0,0.4-0.1,0.6-0.1c0.8-0.4,1.4-1.1,1.8-1.9c0.6-1.1,1-2.3,1.2-3.5c-0.8,0-1.6-0.3-2.3-0.7
				c-1-0.7-1.7-1.6-2-2.8C268.8,328,268.2,329.6,268.2,331.3z M272.2,325.2c-0.1,0-0.3,0-0.4,0.1c-0.3,0.2-0.5,0.7-0.5,1.1
				c0,0.1,0,0.2,0,0.3c0.1,0.7,0.6,1.3,1.2,1.6c0.5,0.3,1,0.5,1.5,0.5c0-0.5-0.1-0.9-0.2-1.4C273.5,325.9,273,325.2,272.2,325.2
				L272.2,325.2z"/>
			<path class="st7" d="M287.5,336.4L287.5,336.4c-0.1,0.5-0.3,0.7-0.7,0.7c-0.1,0-0.3,0-0.4-0.1c-0.2-0.2-0.4-0.4-0.4-0.7
				c0-0.1,0.3-2.5,0.8-7.1c-1.4,2.9-2.4,5.2-3.2,6.8c-0.2,0.4-0.3,0.6-0.3,0.6c-0.1,0.3-0.4,0.5-0.7,0.5h-0.2
				c-0.3-0.1-0.5-0.3-0.5-0.6l-1.5-7.3c-0.3,2.6-0.7,5-1,7.2l0,0c-0.1,0.5-0.3,0.7-0.7,0.7c-0.1,0-0.3,0-0.4-0.1
				c-0.2-0.2-0.4-0.4-0.3-0.7c0-0.1,0.4-3.2,1.2-9.3c0.2-1.6,0.3-2.4,0.3-2.6c0-0.1,0.1-0.2,0.1-0.3c0.1-0.2,0.4-0.4,0.6-0.4h0.2
				c0.2,0,0.4,0.2,0.4,0.4c0.1,0.7,0.5,2.5,1.1,5.6l0.9,4.4l4.7-9.9l0.1-0.2c0.1-0.2,0.4-0.3,0.6-0.3c0.1,0,0.2,0,0.3,0.1
				c0.2,0.1,0.4,0.3,0.4,0.6c0,0.2,0,0.4-0.1,0.6C288.2,331.7,287.7,335.5,287.5,336.4z"/>
			<path class="st7" d="M299.8,323.7c0.1,0,0.2,0,0.3,0.1c0.2,0.1,0.4,0.3,0.4,0.6c-0.9,7.5-1.5,11.5-1.6,12.1
				c-0.2,1.1-0.6,2.2-1.2,3.2c-1.3,1.8-3.7,2.4-5.7,1.4c-0.9-0.4-1.6-1-2-1.8c-0.1-0.2-0.1-0.5,0-0.7c0.2-0.3,0.6-0.4,0.9-0.3
				c0.1,0,0.2,0.1,0.2,0.2c0.7,1,1.8,1.7,3,1.7c0.9,0,1.8-0.4,2.3-1.2c0.8-1.1,1.2-2.3,1.3-3.6c-0.2,0.3-0.5,0.7-0.9,0.9
				c-0.6,0.4-1.3,0.7-2.1,0.7h-0.4c-0.9-0.2-1.7-0.7-2.2-1.6c-0.7-1.2-1-2.5-1-3.9c0-0.7,0-1.4,0.1-2.2c0.1-1.2,0.4-2.8,0.8-5
				c0-0.1,0-0.1,0.1-0.2c0.1-0.3,0.3-0.5,0.6-0.5c0.1,0,0.2,0,0.3,0.1c0.2,0.1,0.3,0.3,0.4,0.6c0,0.9-0.1,1.7-0.3,2.6
				c-0.2,1.3-0.4,2.7-0.5,4c0,1.1,0.1,2.1,0.5,3.1c0.4,0.9,1,1.4,1.7,1.4c0.1,0,0.2,0,0.2,0c0.7-0.2,1.3-0.7,1.7-1.4
				c0.7-1,1.2-2,1.4-3.2l0.9-6.6c0-0.1,0-0.2,0.1-0.3C299.3,323.9,299.6,323.7,299.8,323.7z"/>
		</g>
		<circle class="st7" cx="178.3" cy="330.2" r="10.1"/>
		<path class="st8" d="M181.3,331.7L181.3,331.7c0.9,0,1.7,0.7,1.6,1.6c0,0.9-0.7,1.7-1.6,1.6c-0.9,0-1.6-0.7-1.6-1.6
			S180.4,331.7,181.3,331.7z"/>
		<path class="st8" d="M183,327.6c0.6,0,1,0.4,1,1s-0.4,1-1,1s-1-0.4-1-1S182.4,327.6,183,327.6z"/>
		<path class="st7" d="M187.6,334.1c0,0,5.5,5.2,4.3,6.7s-8.6-2.4-16.4-8.1s-13.2-11.5-11.3-13.1s8,2.4,8,2.4l1.2-0.8
			c0,0-10-6.2-12.1-4.1s5.3,10,13.4,16.5s17.5,11.1,19.7,9.3s-6.5-10.1-6.4-10.3L187.6,334.1z"/>
		<g class="st9">
			<path class="st8" d="M185.7,324.6c1.2,1.5,1.9,3.4,2,5.4c0,1.1-0.2,2.2-0.5,3.2c-0.3,0.8-0.7,1.6-1.2,2.3
				c-0.9,1.2-1.7,1.7-1.8,1.6s0.6-0.7,1.3-1.9c2-3.1,1.9-7.2-0.2-10.2c-0.8-1.2-1.5-1.8-1.4-1.8C183.9,323,184.8,323.4,185.7,324.6z
				"/>
		</g>
		<path class="st7" d="M154.6,330.3c0-9.8,0.1-17.7,0.3-17.7s0.3,7.9,0.3,17.7s-0.1,17.7-0.3,17.7S154.6,340,154.6,330.3z"/>
		<path class="st7" d="M311.9,330.3c0-9.8,0.1-17.7,0.3-17.7c0.2,0,0.3,7.9,0.3,17.7s-0.1,17.7-0.3,17.7
			C312,347.9,311.9,340,311.9,330.3z"/>
		<path class="st7" d="M151.2,330.3c0-9.8,0.1-17.7,0.3-17.7s0.3,7.9,0.3,17.7s-0.1,17.7-0.3,17.7
			C151.3,347.9,151.2,340,151.2,330.3z"/>
		<path class="st7" d="M315.1,330.3c0-9.8,0.1-17.7,0.3-17.7s0.3,7.9,0.3,17.7s-0.1,17.7-0.3,17.7
			C315.2,347.9,315.1,340,315.1,330.3z"/>
		<path class="st0" d="M179.4,350.8v36h-69.7v-36H179.4z"/>
		<path class="st6" d="M334.8,368.5c0-11.5-9.3-20.8-20.7-20.8L106.4,347v3.8h49.3c9.9,0,18,8.1,18,18l0,0c0,9.9-8.1,18-18,18h-49.3
			v2.6H314c10.9,0.1,20-8.4,20.7-19.3c0-0.4,0-0.7,0-1C334.7,368.9,334.7,368.7,334.8,368.5z"/>
		<path class="st1" d="M141.7,368.9c17.7,0,32,0.2,32,0.4s-14.3,0.4-32,0.4s-32-0.2-32-0.4S124,368.9,141.7,368.9z"/>
		<path class="st1" d="M141,377c16.7,0,30.2,0.2,30.2,0.4s-13.6,0.4-30.3,0.4s-30.3-0.2-30.3-0.4C110.7,377.2,124.3,377,141,377z"/>
		<path class="st1" d="M136.9,384.4c15,0,27.2,0.2,27.2,0.4s-12.2,0.4-27.2,0.4s-27.2-0.2-27.2-0.4
			C109.7,384.6,121.8,384.4,136.9,384.4z"/>
		<path class="st1" d="M141,361.6c17.4,0,31.4,0.2,31.4,0.4s-14,0.4-31.4,0.4s-31.3-0.2-31.3-0.4C109.7,361.8,123.7,361.6,141,361.6
			z"/>
		<path class="st1" d="M138.6,354.3c15.4,0,27.9,0.2,27.9,0.4s-12.5,0.4-27.9,0.4s-27.9-0.2-27.9-0.4
			C110.7,354.5,123.2,354.3,138.6,354.3z"/>
		<g class="st9">
			<path d="M334.8,368.5c0-11.5-9.3-20.8-20.7-20.8L106.4,347v3.8h49.3c9.9,0,18,8.1,18,18l0,0c0,9.9-8.1,18-18,18h-49.3v2.6H314
				c10.9,0.1,20-8.4,20.7-19.3c0-0.4,0-0.7,0-1C334.7,368.9,334.7,368.7,334.8,368.5z"/>
		</g>
		<path class="st1" d="M311.1,349.4c1.3,1.1,2.4,2.4,3.4,3.8c6.9,9.4,6.7,22.2-0.4,31.5c-1,1.4-2.2,2.6-3.5,3.7
			c-0.4,0.4-0.9,0.8-1.5,1.1c1.6-1.6,3.2-3.3,4.5-5.1c6.7-9.2,6.8-21.5,0.4-30.9c-1.3-1.9-2.8-3.6-4.4-5.2
			C310.1,348.6,310.6,349,311.1,349.4z"/>
		<path class="st1" d="M318.1,348.6c1.3,1.1,2.4,2.4,3.4,3.8c6.9,9.4,6.7,22.2-0.4,31.5c-1,1.4-2.2,2.6-3.5,3.7
			c-0.5,0.4-1,0.8-1.5,1.1c1.6-1.6,3.2-3.3,4.5-5.1c6.7-9.2,6.8-21.5,0.4-30.9c-1.3-1.9-2.8-3.6-4.4-5.2
			C317.1,347.8,317.6,348.2,318.1,348.6z"/>
		<path class="st1" d="M177.1,349.4c1.2,1.1,2.4,2.4,3.4,3.8c6.9,9.4,6.7,22.2-0.4,31.5c-1,1.4-2.2,2.6-3.5,3.7
			c-0.4,0.4-1,0.8-1.5,1.1c1.6-1.6,3.2-3.3,4.5-5.1c6.7-9.2,6.8-21.5,0.4-30.9c-1.3-1.9-2.8-3.6-4.4-5.2
			C176.1,348.6,176.6,349,177.1,349.4z"/>
		<path class="st1" d="M184.1,348.6c1.3,1.1,2.4,2.4,3.4,3.8c6.9,9.4,6.7,22.2-0.4,31.5c-1,1.4-2.2,2.6-3.5,3.7
			c-0.5,0.4-1,0.8-1.5,1.1c1.6-1.6,3.2-3.3,4.5-5.1c6.7-9.2,6.8-21.5,0.4-30.9c-1.3-1.9-2.8-3.6-4.4-5.2
			C183.1,347.8,183.6,348.2,184.1,348.6z"/>
		<path class="st1" d="M286.6,379.6c0.6,1.8,2.1,3.1,3.9,3.4c1.9,0,3.6-1,4.5-2.7c0.8-1.6,1.3-3.5,1.4-5.3c0.4-3.8,0.6-7.7,0.6-11.6
			c0-2.5-0.1-5.1-1.4-7.2s-4.2-3.6-6-2.8c-1.3,0.2-2.4,1.1-2.8,2.4c-0.4,1.2-0.6,2.5-0.5,3.8c-0.1,4.9-0.1,9.8-0.2,14.6
			C285.9,376,286.1,377.8,286.6,379.6z"/>
		<path class="st1" d="M238.9,369.6c18.5,0,33.5,0.2,33.5,0.4s-15,0.4-33.5,0.4s-33.5-0.2-33.5-0.4
			C205.4,369.8,220.4,369.6,238.9,369.6z"/>
		<path class="st8" d="M125.2,431.4h291.5c4.8,7.2,3.8,15.2,0,23.7H125.2C121.7,447.9,121.4,440,125.2,431.4z"/>
		<rect x="198.4" y="438.2" class="st2" width="157.9" height="8.6"/>
		<path class="st1" d="M407.2,452c1.2-2.6,2-5.3,2.2-8.1c0.2-2.8,0-5.7-0.8-8.4c-0.6-2.1-1.2-3.4-1-3.4c0.8,0.9,1.4,2,1.7,3.2
			c2,5.7,1.5,11.9-1.5,17.1c-1.2,2-2.2,3-2.3,2.9C405.4,455.1,406.2,454,407.2,452z"/>
		<path class="st1" d="M400.8,452c2.5-5.2,3.1-11.1,1.5-16.6c-0.6-2.1-1.1-3.4-1-3.4c0.8,0.9,1.4,2,1.7,3.2c2,5.7,1.5,11.9-1.5,17.1
			c-0.5,1.1-1.3,2.1-2.3,2.9C399.1,455.1,399.9,454,400.8,452z"/>
		<path class="st1" d="M133.9,443.1c0-6.8,2.7-11.7,3-11.6s-1.9,5-1.9,11.6s2.4,11.5,2.1,11.6C136.8,454.8,133.9,449.9,133.9,443.1z
			"/>
		<path class="st1" d="M140.5,443.3c0-6.4,1.7-11.4,2-11.4s-0.9,5.1-0.9,11.4s1.2,11.3,0.9,11.4
			C142.2,454.7,140.5,449.7,140.5,443.3z"/>
	</g>
	<g id="freepik--Character--inject-67">
		<path class="st10" d="M143.1,304.5c-3.2-3.5-3.3-11.9-3.3-11.9l22.9-20l13.9,20l-22.1,17.1C154.5,309.7,146.3,308,143.1,304.5z"/>
		<path class="st7" d="M274,279.4c0,0.6-17.9,7.3-18.3,6.7c-0.4-0.5-38.6-23.5-38.6-23.5L176.9,294l-18.7-22.8
			c0,0,46.3-38.7,51.7-43.3c5.8-5,17-3.7,21.5-0.9c3.6,2.3,36.6,30.4,36.7,31C268.2,258,274,278.8,274,279.4z"/>
		<path class="st1" d="M146.2,286.4l-17,16.4c0,0-27,0.4-30.3,0.1s-3.6,4.4-3.6,4.4l37.3,19.8c3.1,1.6,5.2,3.5,6.9,0.5l4.3-8
			l19.5-16.6L146.2,286.4z"/>
		<path class="st1" d="M166.2,302.8c0.8-0.7,0.8-1.9,0.1-2.7l-16.1-17c0,0-0.1-0.1-0.1-0.1c-0.8-0.7-2-0.6-2.7,0.2l-4.1,4.7
			c-0.7,0.7-0.7,1.8,0,2.5l15.1,16.2c0.7,0.7,1.8,0.8,2.5,0.2l5.1-3.9C166.1,302.9,166.1,302.9,166.2,302.8z"/>
		<path class="st7" d="M145,292.3c1.4,1.6,3.3,3.8,5.5,6.2s4.3,4.4,5.8,5.9c0.9,0.8,1.7,1.6,2.4,2.4c-0.3-0.1-0.5-0.3-0.8-0.5
			c-0.5-0.4-1.1-0.9-1.9-1.6c-1.6-1.4-3.7-3.5-5.9-5.8s-4.1-4.6-5.4-6.3c-0.7-0.9-1.4-1.8-2-2.8C143.5,290.6,144.3,291.4,145,292.3z
			"/>
		<path class="st7" d="M160.7,301.2c1.1-1.2,2-2.6,2.8-4c-0.8,3.4-3.4,6.1-6.7,7C158.2,303.3,159.5,302.3,160.7,301.2z"/>
		<path class="st7" d="M154.4,295.3c1.3-1.3,2.6-2.4,4-3.5c-2.3,2.8-4.9,5.2-7.9,7.1C151.7,297.6,153,296.4,154.4,295.3z"/>
		<path class="st7" d="M145.8,290.4c0.7-1,1.6-1.9,2.7-2.6c1.1-0.7,2.2-1.1,3.5-1.4c0.5-0.1,1-0.1,1.5,0c-1.7,0.4-3.2,1-4.7,1.8
			c-1.4,1-2.6,2.2-3.6,3.5C145.2,291.3,145.4,290.8,145.8,290.4z"/>
		<path class="st7" d="M131.2,323.8c1.2-1.3,2.7-2.3,4.3-2.8c1.7-0.6,3.4-0.7,5.2-0.4c0.7,0.1,1.4,0.3,2,0.7c0,0.1-0.8-0.2-2.1-0.3
			c-3.4-0.4-6.7,0.8-9.2,3.1c-0.9,0.9-1.4,1.6-1.5,1.5C130.3,324.9,130.7,324.2,131.2,323.8z"/>
		<path class="st7" d="M107.1,311.8c0.6-1.1,0.9-2.3,0.9-3.5c0-1.2-0.3-2.5-0.7-3.6c-0.2-0.5-0.4-1-0.5-1.5c0.4,0.4,0.6,0.9,0.8,1.4
			c0.5,1.2,0.8,2.5,0.9,3.8c0,1.3-0.4,2.6-1.1,3.7c-0.6,0.8-1.1,1.2-1.1,1.2C106.2,313.1,106.6,312.7,107.1,311.8z"/>
		<path class="st7" d="M255.8,201.3c1.5,3.4,0.6,7.5,2.4,10.8c2.4,4.3,8.9,4.9,13.1,2.4c4.3-2.4,7-6.9,9.3-11.3
			c2.3-4.1,4.1-8.5,5.2-13c1.5-7,0.5-14.3-0.8-21.3c-3.7-19.3-0.1-47.6-8.8-65.3l-10.4,4.6c-12.2,8.1-11.8,22-11.1,29.5
			s2.3,15.2,0.3,22.4c-1,3.6-2.8,7.1-2.3,10.8c0.5,3.8,3.5,7.4,2.5,11.1c-0.8,3.2-4.4,5.3-4.8,8.6
			C249.8,194.7,254.2,197.5,255.8,201.3z"/>
		<path class="st6" d="M281.6,178.2c-3.2,1.6-5.8,4.1-7.6,7.2c-1.4,2.6-2.9,12.5-4.9,19.7s-4.1,15.1-2.6,22.5
			c1.2,5.8,2.4,12.5,2.4,16c0,7-1.3,25-1.3,25s18.7,2.8,20.4,3c18.6,2.5,25.2,22.5,27.1,29.8s6.9,14.2,6.9,14.2
			c14.4-2.2,17.9-24.1,19.9-30.5c1.2-3.9,1.1-11.7,0-29.1c-0.7-11.5-2.2-28.7-4.6-44.3c-2.9-18.8-8.7-32-17-37.9
			c-5.3-3.7-13-4.6-13-4.6L281.6,178.2z"/>
		<path class="st7" d="M293.4,272.1c0.4-0.1,0.9-0.1,1.4-0.1c1.7-0.1,3.4,0.1,5,0.4c2.4,0.4,4.8,1.2,7.1,2.1
			c2.8,1.2,5.4,2.8,7.7,4.7c4,3.7,7.4,8.1,10.2,12.8c1.1,1.8,1.9,3.3,2.5,4.3c0.3,0.5,0.6,1.1,0.8,1.6c-0.4-0.5-0.7-1-1-1.5
			l-2.6-4.2c-2.3-3.5-5.5-8.4-10.2-12.6c-2.3-1.9-4.8-3.5-7.5-4.7c-2.2-1-4.5-1.7-6.9-2.2c-1.6-0.3-3.2-0.5-4.9-0.5
			c-1.2,0-1.8,0-1.8,0C293.1,272.2,293.3,272.1,293.4,272.1z"/>
		<g class="st11">
			<path d="M306.7,274.7c4.4,1.8,7.4,4.3,10.5,7.8s5.9,7.3,9.1,10.8c0.9,0.9,2.1,1.9,3.3,1.4c0.8-0.5,1.2-1.4,1-2.4
				c-0.2-0.9-0.7-1.7-1.3-2.4C322.1,281.1,317.5,278,306.7,274.7z"/>
		</g>
		<g class="st11">
			<path d="M269,251.9c1.5,2.1,8.4,6.7,10.6,8c9.1,5.3,20.2,9.9,31.8,14.5c4.5,1.8,11.3,4.5,14.9,2.1c4.4-2.8,7.2-6,8.4-11.1
				c3.1-13.4-2-47.8-3.7-63.9l-11.4,17.1c0,0,1.5,8.6,2.4,13.9c0.9,5.3,1.6,10.8,0.3,16s-4.8,10.3-10,11.8c-4.9,1.5-10.2-0.4-15-2.3
				l-24.5-9.5c-0.6-0.3-1.3-0.4-2-0.1c-0.5,0.3-0.8,0.9-0.8,1.5C269.5,252.4,267.5,249.9,269,251.9z"/>
		</g>
		<path class="st7" d="M309.2,281.8c-4.5-5.9-15.6-9.5-15.6-9.5s-73.9-10.6-82.2-11c-9.9-0.6-15.9,6.7-16,11.8
			c-0.1,3.4-0.9,23.9-0.9,23.9v54.2h30.9c0,0,3.7-25.3,3.6-32.8c-0.1-5.5-0.7-10.9-1.6-16.3c0,0,37.6,14,55.4,14.9
			s38.7-2.1,38.5-2.4C321.3,314.5,313.7,287.7,309.2,281.8z"/>
		<path class="st8" d="M315.6,296.3c-1.8,0.4-3.7,0.5-5.6,0.2C311.8,296,313.7,295.9,315.6,296.3z"/>
		<path class="st8" d="M301.6,295.8c0.9,0,1.9,0.1,2.8,0.5c-0.9,0.2-1.9,0.2-2.8,0.1c-0.9,0-1.9-0.1-2.8-0.5
			C299.8,295.7,300.7,295.7,301.6,295.8z"/>
		<path class="st8" d="M287.8,294.4c1.9-0.1,3.8,0.2,5.5,0.8c-0.9,0.1-1.9,0.1-2.8-0.1C289.6,295.1,288.6,294.8,287.8,294.4
			L287.8,294.4z"/>
		<path class="st8" d="M279.6,292.6c0.9,0.1,1.8,0.4,2.7,0.8c-0.9,0.1-1.9,0-2.8-0.3c-0.9-0.1-1.9-0.4-2.7-0.8
			C277.8,292.3,278.7,292.3,279.6,292.6z"/>
		<path class="st8" d="M268.7,290.3c0.9,0.1,1.8,0.4,2.7,0.9c-1.9,0-3.7-0.4-5.4-1.2C266.9,289.9,267.8,290,268.7,290.3z"/>
		<path class="st8" d="M257.8,287.8c0.9,0.1,1.8,0.4,2.7,0.9c-0.9,0.1-1.9,0-2.8-0.3c-0.9-0.1-1.8-0.4-2.7-0.9
			C255.9,287.4,256.9,287.5,257.8,287.8z"/>
		<path class="st8" d="M246.9,285.5c0.9,0.1,1.9,0.4,2.7,0.8c-0.9,0.1-1.9,0-2.8-0.3c-0.9-0.1-1.9-0.4-2.7-0.8
			C245,285.2,246,285.2,246.9,285.5z"/>
		<path class="st8" d="M235.9,283.6c0.9,0,1.9,0.3,2.7,0.7c-0.9,0.2-1.9,0.1-2.8-0.1c-0.9,0-1.9-0.3-2.7-0.7
			C234,283.4,235,283.4,235.9,283.6z"/>
		<path class="st8" d="M224.8,282.4c1-0.1,1.9,0.1,2.8,0.5c-0.9,0.2-1.9,0.2-2.8,0.1c-0.9,0.1-1.9,0-2.8-0.2
			C222.9,282.4,223.8,282.3,224.8,282.4z"/>
		<path class="st8" d="M215.6,287.6c0.3-1.6,1.3-2.5,1.4-2.4s-0.6,1.1-0.9,2.6s-0.4,2.7-0.6,2.7
			C215.3,289.5,215.3,288.5,215.6,287.6z"/>
		<path class="st8" d="M215,298.8c-0.1-0.9,0.1-1.9,0.4-2.8c0.3,0.9,0.3,1.9,0.2,2.8c0.1,0.9-0.1,1.9-0.4,2.8
			C214.9,300.7,214.8,299.8,215,298.8z"/>
		<path class="st8" d="M214.4,310c0-0.9,0.1-1.9,0.4-2.8c0.2,0.9,0.3,1.9,0.1,2.8c0,0.9-0.1,1.9-0.4,2.8
			C214.3,311.9,214.3,310.9,214.4,310z"/>
		<path class="st8" d="M214.3,318.3c0.3,1.9,0.2,3.8-0.3,5.6C213.7,322,213.8,320.1,214.3,318.3z"/>
		<path class="st8" d="M213.7,329.4c0.3,1.9,0.2,3.8-0.3,5.6C213.1,333.1,213.2,331.2,213.7,329.4z"/>
		<path class="st8" d="M213.1,340.6c0.3,1.9,0.2,3.8-0.2,5.6C212.6,344.3,212.7,342.4,213.1,340.6z"/>
		<path class="st8" d="M216.5,276.5c0.4,0.6,1,1.6,1.6,2.7c1.7,3.1,3.2,6.2,4.6,9.4c1.4,3.2,2.6,6.5,3.6,9.8
			c0.4,1.3,0.7,2.3,0.9,3.1c0.1,0.4,0.2,0.8,0.2,1.1c-0.6-1.3-1-2.7-1.5-4.1c-0.9-2.5-2.1-6-3.7-9.8s-3.2-7.1-4.4-9.5
			c-0.7-1.3-1.3-2.6-1.9-3.9C216.1,275.8,216.3,276.1,216.5,276.5z"/>
		<path class="st8" d="M207.3,285.8c1,0.3,1.9,0.7,2.8,1.2c6.1,2.9,11.5,7.3,15.5,12.7c0.6,0.8,1.2,1.7,1.7,2.5
			c0.2,0.3,0.4,0.6,0.5,1c-0.1,0.1-0.9-1.3-2.5-3.3c-2.1-2.6-4.4-5-7-7.1c-2.6-2.1-5.4-3.9-8.4-5.5c-2.3-1.2-3.7-1.8-3.7-1.8
			C206.6,285.5,206.9,285.6,207.3,285.8z"/>
		<path class="st8" d="M194.4,299.6c0-0.5,0-1,0-1.7c0-1.6,0-3.6,0.1-6.3s0.1-5.9,0.2-9.4c0.1-1.8,0-3.6,0.2-5.5c0.2-2,0.5-4,1-5.9
			c0.3-1,0.6-2,1-2.9c0.4-0.9,1-1.7,1.7-2.5c1.3-1.3,2.9-2.4,4.6-3.1c1.6-0.7,3.2-1.1,4.9-1.2c1.5,0,2.9,0,4.4,0.1
			c2.7,0.2,4.8,0.5,6.3,0.7l1.7,0.2c0.2,0,0.4,0.1,0.6,0.1c-0.2,0-0.4,0-0.6,0l-1.7-0.1c-1.5-0.1-3.6-0.3-6.3-0.5
			c-1.4-0.1-2.9-0.1-4.3,0c-1.6,0.1-3.2,0.5-4.7,1.2c-1.7,0.7-3.2,1.7-4.5,3c-0.7,0.7-1.2,1.4-1.6,2.3c-0.4,0.9-0.7,1.8-1,2.8
			c-0.5,1.9-0.8,3.8-1,5.8c-0.1,1.9-0.1,3.8-0.2,5.5c-0.1,3.5-0.2,6.8-0.3,9.4s-0.2,4.7-0.3,6.3
			C194.5,298.6,194.5,299.2,194.4,299.6c0.1,0.2,0.1,0.4,0,0.6C194.4,300,194.4,299.8,194.4,299.6z"/>
		<path class="st8" d="M224.3,263.3l1.9,0.1c1.7,0.1,4.1,0.4,7.1,0.7c6,0.6,14.3,1.6,23.5,2.8c9.2,1.2,17.4,2.4,23.4,3.4
			c3,0.5,5.4,0.9,7.1,1.2l1.9,0.4c0.2,0,0.4,0.1,0.7,0.2c-0.2,0-0.5,0-0.7-0.1l-1.9-0.3l-7.1-1c-6-0.9-14.3-2.1-23.4-3.3
			s-17.4-2.2-23.4-2.9l-7.1-0.9l-1.9-0.3c-0.2,0-0.5-0.1-0.7-0.1C223.8,263.2,224,263.2,224.3,263.3z"/>
		<path class="st10" d="M209.7,377.9c-4.7,0.1-11.8-5.8-11.8-5.8l-0.7-20.9h25.7l-1.8,21.4C221.1,372.6,214.4,377.7,209.7,377.9z"/>
		<path class="st1" d="M197.4,355.8l-0.3,18.6c0,0-24.7,7.4-28.1,8.8s-1.2,6-1.2,6h52.8l2.3-32.4l0,0L197.4,355.8z"/>
		<path class="st1" d="M225.2,357.1c0.1-1.1-0.8-2.1-2-2.2l-24.8-1.1c-0.1,0-0.1,0-0.2,0c-1.1,0.1-1.9,1-1.9,2.1l0.5,6.6
			c0.1,1,0.9,1.9,1.9,1.9l23.4,1.3c1,0,1.9-0.7,2.1-1.7l0.9-6.7C225.2,357.2,225.2,357.1,225.2,357.1z"/>
		<path class="st7" d="M201.3,364.6c2.3,0.2,5.4,0.4,9,0.6s6.7,0.1,9,0.1c1.2-0.1,2.5-0.1,3.7,0c-0.3,0.1-0.7,0.1-1,0.2
			c-0.6,0.1-1.6,0.1-2.7,0.2c-2.3,0.1-5.5,0.2-9,0s-6.7-0.5-9-0.7c-1.1-0.1-2.1-0.3-2.7-0.4c-0.3,0-0.7-0.1-1-0.2
			C198.8,364.4,200.1,364.5,201.3,364.6z"/>
		<path class="st7" d="M218.9,360.1c0.1-1.8,0.1-3.6,0-5.5c1.1,3.6,0.6,7.5-1.3,10.8C218.1,363.6,218.6,361.8,218.9,360.1z"/>
		<path class="st7" d="M211.2,365.4c-0.4-3.6-0.3-7.2,0.5-10.8c0.1,1.8,0,3.6-0.1,5.4C211.5,361.8,211.4,363.6,211.2,365.4
			L211.2,365.4z"/>
		<path class="st7" d="M202.7,359.7c0-1.9,0.3-3.7,1.1-5.4c0.1,0-0.4,2.4-0.5,5.5s0.4,5.5,0.2,5.5
			C202.8,363.4,202.5,361.6,202.7,359.7z"/>
		<path class="st7" d="M213.2,387.2c0.9-2.9,3.1-5.1,5.9-6.1c0.6-0.2,1.2-0.3,1.8-0.3c-0.5,0.3-1.1,0.5-1.6,0.7
			c-1.3,0.6-2.5,1.4-3.4,2.4c-1,1-1.7,2.2-2.3,3.5c-0.2,0.6-0.4,1.1-0.6,1.7C212.9,388.4,213,387.8,213.2,387.2z"/>
		<path class="st7" d="M181.3,387.1c0-2.1-0.8-4.2-2.4-5.7c-0.6-0.6-1-0.8-1-0.9c0.5,0.1,0.9,0.3,1.2,0.6c1.8,1.4,2.7,3.7,2.5,6
			c-0.1,0.9-0.4,1.3-0.4,1.3C181.2,388,181.3,387.5,181.3,387.1z"/>
		<path class="st7" d="M257.4,130.9c12.3-6.7,25.1-10.9,36.7-18.9c-0.5-5.3-9.2-8.8-13.1-8.8c-7,0-13.6,2.9-18.5,8
			C258,116.2,256.7,124.1,257.4,130.9z"/>
		<path class="st10" d="M286.9,198.1l-6.1-20.2c-0.7-3.5-1.3-6.2-1.3-6.2s-12.2,1.2-15.3-10.5c-1.6-5.6-3.7-17.5-5.6-28.2
			c-2-11.6,5.2-22.7,16.6-25.7l1.1-0.3c12.4-2.4,21.3,6.7,23.4,19.1l7.6,41.2C307.3,167.4,288.6,198.3,286.9,198.1L286.9,198.1z"/>
		<path class="st12" d="M280.1,174.8c11.9-1.9,13.5-11.4,13.5-11.4c-3.8,4.1-8.7,7-14.1,8.4L280.1,174.8z"/>
		<path class="st12" d="M282.9,150.7c0.6,0.3,1.1,0.7,1.4,1.2c0.5,0.6,0.6,1.5,0.3,2.2c-0.2,0.5-0.6,0.9-1.1,1.1
			c-0.6,0.4-1.3,0.5-2.1,0.4c-0.4-0.1-0.7-0.2-1-0.4c-1.2-0.8-1.5-2.4-0.7-3.6c0.8-1.2,2.4-1.5,3.6-0.7"/>
		<path class="st7" d="M264.1,142.1c-0.2-0.9,0.4-1.8,1.3-1.9c0.9-0.2,1.8,0.4,2,1.3c0,0,0,0,0,0c0.2,0.9-0.4,1.8-1.3,1.9
			C265.2,143.6,264.4,143,264.1,142.1C264.1,142.1,264.1,142.1,264.1,142.1z"/>
		<path class="st7" d="M263,137c0.6-0.7,1.4-1.3,2.3-1.5c0.9-0.2,1.9-0.2,2.9,0.1c0.7,0.3,1.1,0.5,0.9,0.7c-0.1,0.3-1.7-0.3-3.5,0.2
			c-1.8,0.5-2.8,1.7-3.1,1.6C262.4,138,262.5,137.6,263,137z"/>
		<path class="st7" d="M280.4,138.4c-0.2-0.9,0.5-1.8,1.3-1.9c0.9-0.2,1.8,0.4,2,1.3c0,0,0,0,0,0c0.2,0.9-0.4,1.8-1.3,1.9
			C281.5,139.9,280.6,139.3,280.4,138.4C280.4,138.4,280.4,138.4,280.4,138.4z"/>
		<path class="st7" d="M280.4,133c0.6-0.7,1.4-1.3,2.4-1.5c0.9-0.2,1.9-0.2,2.9,0.1c0.7,0.3,1,0.6,0.9,0.7c-0.1,0.3-1.7-0.3-3.5,0.2
			c-1.8,0.4-2.8,1.7-3.1,1.6C279.8,134,279.9,133.6,280.4,133z"/>
		<path class="st7" d="M274.4,149.8c-0.3,0.1-0.5,0.1-0.8,0.1c-0.4,0-0.7-0.2-0.9-0.5c-0.3-0.6-0.4-1.2-0.2-1.9
			c0.1-1.2,0.2-2.5,0.4-3.8c0.6-5.5,1.3-9.9,1.5-9.8s-0.1,4.5-0.7,9.9c-0.2,1.3-0.3,2.6-0.5,3.8c-0.1,0.5-0.1,1,0,1.4
			c0.2,0.3,0.6,0.3,1.1,0.2c1-0.2,2-0.3,3.1-0.2C276.3,149.4,275.4,149.6,274.4,149.8z"/>
		<path class="st7" d="M283.5,150.1c0.1,1.1-0.1,2.3-0.8,3.2c-0.7,1-1.7,1.6-2.9,1.9c-0.9,0.2-1.4,0.2-1.4-0.1
			c-0.1-0.3,2.1-0.6,3.4-2.4c1.3-1.8,0.8-3.8,1.1-3.8C283,148.8,283.4,149.2,283.5,150.1z"/>
		<path class="st7" d="M279,125.9c1.9-1.3,4.2-1.6,6.4-0.9c0.8,0.3,1.2,0.7,1.1,0.9c-0.2,0.5-2,0.4-4.2,0.7c-2.2,0.3-3.9,1-4.2,0.5
			C278,126.9,278.3,126.4,279,125.9z"/>
		<path class="st7" d="M262.3,131.6c1.2-1.4,3.1-2,4.9-1.4c0.6,0.2,1,0.6,0.9,0.8c-0.2,0.5-1.6,0.5-3,0.9c-1.5,0.4-2.6,1.1-3,0.8
			C261.8,132.6,261.8,132.2,262.3,131.6z"/>
		<path class="st7" d="M286.3,115.6c-0.3,1.7-1.1,3.3-0.6,5c0.9,3.8,6.6,3.7,9,6.7c1.7,2.1,1.5,5.1,1,7.7s-1.1,5.5-0.1,7.9
			c1.7,3.7,6.6,5,8,8.8c0.8,2.1,0.3,4.5-0.6,6.6c-0.8,2.1-1.9,4.2-2.3,6.4s0.3,4.8,2.2,6c2.4,1.6,4.9,0.9,7.8,0.5
			c4.8-0.7,9,1.7,12.7,4.9c3.7,3.2,5.7,8,7.7,12.2c6-3.6,7.8-13.6,0.7-21c-1.9-1.9-4.6-3.3-5.4-5.8c-1-3.6,2.3-7.3,1.7-11
			c-0.9-5.4-8.8-6.7-10.8-11.8c-1.2-3.1,0.2-6.7-0.9-9.8c-1.7-4.7-7.1-6-10.5-9.6c-2.1-2.2-2.7-5.4-4.4-8
			c-4.6-6.9-17.6-13.7-28.1-6.9l9.6,8.4C284.6,112.9,286.6,113.9,286.3,115.6z"/>
		<path class="st7" d="M319.2,172.6c0.6-0.4-5.2-24.7-5.2-24.7l-10.9-8.2l-7.2,3.7c1,2.7,4.2,3.4,4.8,4.9c0.6,1.5,0.5,3.1-0.3,4.5
			c-1.5,2.2-5,2.3-6.4,4.6c-1.8,2.9,1.1,6.9-0.4,9.9c-1.1,2.3-4,2.8-6.2,4.1c-2.4,1.5-4,4.2-4,7.1c0,2.3,0.9,4.5,0.9,6.7
			c0,2.4-1,4.7-1.4,7.1c-1,5.6,0.9,11.4,5.1,15.3c3.8-10.4,9.2-20.2,14.6-29.9c1.4-2.6,2.2-5,5.6-6.2c2.8-1,7.7-0.2,10.4,1.5"/>
		<path class="st7" d="M250.7,203.2c-1.6-2.3-2.5-5.1-2.4-8c0-2,0.5-3.9,1.4-5.7c1.1-1.9,2.1-3.9,2.9-6c0.7-2.3,0.7-4.8,0.3-7.2
			c-0.4-2.6-0.7-5.3-0.7-7.9c0.1-5.1,0.7-10.2,1.6-15.3c0.8-4.1,1.3-8.2,1.6-12.4c0.2-2.8,0.1-5.6-0.2-8.4c-0.1-1-0.3-1.7-0.4-2.3
			c-0.1-0.3-0.1-0.5-0.1-0.8c0.1,0.2,0.2,0.5,0.2,0.8c0.1,0.5,0.3,1.3,0.5,2.3c0.4,2.8,0.5,5.6,0.4,8.4c-0.3,4.2-0.8,8.3-1.5,12.4
			c-0.9,5-1.5,10.1-1.6,15.2c0,2.6,0.2,5.3,0.7,7.9c0.5,2.5,0.4,5-0.3,7.4c-0.9,2.1-1.9,4.1-3,6c-0.9,1.7-1.4,3.6-1.4,5.5
			c-0.1,2.8,0.7,5.6,2.2,7.9c0.6,0.8,1.2,1.6,1.9,2.4C251.9,204.8,251.2,204,250.7,203.2z"/>
		<path class="st7" d="M304.7,118.6c1,0.7,2.1,1.2,3.2,1.6c1.3,0.5,2.8,0.9,4.5,1.6c1.9,0.7,3.4,2,4.4,3.8c1,1.9,1,4.3,1.1,6.6
			c0.1,2.3,0,4.8,1.4,6.9c0.7,1,1.6,1.9,2.7,2.6c1.1,0.7,2.3,1.3,3.4,2c1.2,0.7,2.2,1.5,3.1,2.6c0.8,1.1,1.3,2.3,1.4,3.7
			c0.3,2.6-0.1,5-0.1,7.3c0,1.1,0.1,2.2,0.4,3.3c0.3,1,0.8,2,1.3,2.8c1.1,1.7,2.4,3.2,3.5,4.6c2.3,2.8,3.1,5.7,2.9,7.7
			c-0.1,0.8-0.3,1.5-0.7,2.2c-0.1,0.2-0.2,0.3-0.3,0.5c-0.1,0.1-0.1,0.1-0.1,0.1c0.5-0.9,0.9-1.8,0.9-2.8c-0.1-2.8-1.1-5.4-3-7.5
			c-1.1-1.4-2.4-2.8-3.6-4.6c-0.6-0.9-1.1-1.9-1.4-2.9c-0.3-1.1-0.5-2.3-0.5-3.4c0-2.4,0.4-4.8,0.1-7.3c-0.1-1.2-0.6-2.4-1.3-3.4
			c-0.8-1-1.9-1.8-3-2.5c-1.1-0.7-2.3-1.3-3.4-2c-1.1-0.7-2.1-1.6-2.9-2.7c-0.7-1.1-1.1-2.3-1.2-3.6c-0.1-1.2-0.2-2.4-0.2-3.6
			c-0.1-2.3-0.1-4.6-1-6.4c-0.9-1.7-2.4-2.9-4.1-3.6c-1.6-0.7-3.1-1.2-4.4-1.7c-1.1-0.4-2.2-1-3.2-1.7c-0.6-0.5-1.1-1-1.6-1.7
			c-0.1-0.2-0.3-0.5-0.4-0.7C303.1,117.3,303.8,118,304.7,118.6z"/>
		<path class="st7" d="M257.1,129.6c3.8-1.1,7.7-1.9,11.6-2.3c0.1-1.7,0.3-3.4,0.4-5.2l1.2,3.8l12.3-4.2c-0.4-1.8-0.4-3.7,0.1-5.5
			c0.7-1.7,2.6-3.1,4.4-2.6l3.5-7.6c-7.7-3.3-16.5-2.5-23.4,2.3C260.3,113.2,256.5,121.3,257.1,129.6z"/>
		<path class="st1" d="M264.6,127.2c-0.1-0.9-0.1-1.8-0.1-2.7c0.1-1.3,0.2-2.7,0.5-4c0.7-3.2,1.9-6.3,3.8-9.1
			c0.7-1.1,1.6-2.2,2.5-3.2c0.6-0.7,1.3-1.3,2-1.9c0.2-0.2,0.5-0.4,0.8-0.6c0.1,0.1-1,1-2.5,2.7c-0.9,1-1.6,2.1-2.4,3.2
			c-0.9,1.4-1.6,2.8-2.2,4.3c-0.6,1.5-1.1,3-1.4,4.6c-0.3,1.3-0.5,2.6-0.6,3.9c-0.1,2.3-0.1,3.7-0.1,3.7
			C264.7,127.8,264.6,127.5,264.6,127.2z"/>
		<path class="st2" d="M211.2,231.6l1.5-5.9l-4.9-1.9c-10.2-5.9-17.6-2-17.6-2L211.2,231.6z"/>
		<path class="st8" d="M207.6,235.1l3.1,0.3c0,0,1.6-4.3-6.3-10.7c-7.2-5.9-14.2-2.9-14.2-2.9v2.6c2.5,0.1,4.9,0.5,7.3,1.3
			c0.7,0.2,1.4,0.5,2.1,0.8c5.1,2.9,7.7,8.6,7.7,8.6"/>
		<path class="st8" d="M249.6,228.5l7.5,17.8l-0.2,9.1L210,232.3c0,0,1.7-6,3.1-9.9c1.5-4.1,2.4-4,4.4-4.1c3.2-0.2,20.1,6,20.1,6
			L249.6,228.5z"/>
		<path class="st2" d="M248.3,233.1l-10.7-8.9c0,0-16.3-6.2-19.5-6.8c-4.4-0.8-6.1,8.1-6.1,8.1s1.1-5.4,5-5.9s7.8,6.1,7.8,6.1
			l23.8,7.7"/>
		<polygon class="st8" points="256.9,255.4 253.2,258.3 207.3,235.1 210,232.2 		"/>
		<path class="st10" d="M238.9,222.9c0.8-0.2,4.2,1.6,4.2,1.6l5.5,2.4c0,0,7-1.9,8.5-1.6c1.5,0.3,7.9,8.4,8.2,9.1
			c0,0,0.9,0.8,0.8,6.6c-0.1,3.6-1.5,6.9-3.8,9.6l-7.1-0.8c-3.2-0.8-6.2-2-9-3.6c-3.5-2.3-2.8-4.4-2.8-4.4c-2.3-1.4-1.2-5-1.2-5
			c-1.9-1.7-3.1-4-3.3-6.5l9.7,3.1l-11.6-9.6C237.3,223.1,238.9,222.9,238.9,222.9z"/>
		<path class="st12" d="M252.5,227.9c2,0.7,3.7,1.5,3.6,1.7c-0.1,0.2-1.8-0.3-3.8-1s-3.7-1.5-3.6-1.7
			C248.7,226.7,250.4,227.2,252.5,227.9z"/>
		<path class="st12" d="M244.9,237.6c1.4,0.6,2.4,1.4,2.3,1.6s-1.3-0.3-2.7-0.9s-2.4-1.4-2.3-1.6
			C242.4,236.5,243.5,236.9,244.9,237.6z"/>
		<path class="st12" d="M245.3,243.2c-1.1-0.5-1.8-1.1-1.7-1.3s1,0.1,2.1,0.6s1.8,1.1,1.7,1.3S246.3,243.7,245.3,243.2z"/>
		<path class="st7" d="M233.5,243.4c12.7,6.2,23.1,11.3,23,11.5c-0.1,0.2-10.5-4.8-23.3-11s-23.1-11.4-23-11.5
			C210.3,232.2,220.8,237.1,233.5,243.4z"/>
		<path class="st10" d="M226.6,241l-3.7,1.8l-1.8-0.9l-0.3,1.6c-0.2,1,0,2,0.5,2.8c0.5,1.3,2.7,2,2.7,2s-0.1,0.6,0.6,1.4
			s3.3,1.6,3.3,1.9s0.1,0.4,1.1,1.4s3.3,0.5,3.2,1s1,1.9,2.5,2.1s6.3-3.5,6.8-3.9c0.9-0.6,1.6-1.5,1.8-2.6c0.2-1.1,0.3-2.3,0.2-3.5
			l-2.7-1.8c0,0-0.6-3.1-1-3.4c-1.5-1.1-2-0.3-2-0.3s0.2-2.5,0.4-3.1c0.5-2.3-1.9-3.7-2.9-1c-0.3,0.9-3,5.1-3,5.1l0.3-2
			c0.3-2-1.9-2.2-1.9-2.2C229.4,237,226.6,241,226.6,241z"/>
		<path class="st12" d="M229.6,244c2-1.8,3.3-3.5,3.5-3.4s-0.9,2.1-2.9,4s-4.1,2.8-4.2,2.6C225.8,247.1,227.6,245.8,229.6,244z"/>
		<path class="st12" d="M234.5,245.2c1.8-2.4,3-4.4,3.2-4.4s-0.8,2.4-2.6,4.8s-3.8,4-3.9,3.8C231.1,249.3,232.7,247.5,234.5,245.2z"
			/>
		<path class="st12" d="M238.3,249.2c2-2.2,2.2-4.8,2.4-4.7c0.1,0,0.2,0.7,0,1.7c-0.3,1.3-0.9,2.6-1.8,3.6c-0.9,1-2.1,1.8-3.3,2.3
			c-1,0.3-1.6,0.4-1.6,0.3C233.9,252,236.3,251.4,238.3,249.2z"/>
		<path class="st7" d="M207.9,234.4l2.1-2v0.1c0.3-1.2,0.6-2.5,1-4.1c0.5-1.8,1.1-3.5,1.9-5.1c0.4-1,1-1.8,1.8-2.6
			c0.4-0.4,0.9-0.8,1.4-1c0.3-0.1,0.6-0.1,0.9-0.2c0.3,0,0.6,0,0.9,0c1.2,0.3,2.3,0.8,3.2,1.6c0.9,0.8,1.8,1.7,2.6,2.6
			c0.5,0.6,0.9,1.2,1.4,1.9l-0.1-0.1c6.6,2.2,12.4,4.5,16.6,5.9c2.1,0.7,3.8,1.2,5,1.5l1.4,0.4c0.2,0,0.3,0.1,0.5,0.2
			c-0.2,0-0.3,0-0.5-0.1c-0.3-0.1-0.8-0.1-1.4-0.3c-1.2-0.3-3-0.7-5.1-1.4c-4.3-1.3-10.1-3.5-16.7-5.7h-0.1v-0.1
			c-0.4-0.6-0.9-1.2-1.3-1.8c-0.7-0.9-1.6-1.8-2.5-2.6c-0.9-1.1-2.3-1.6-3.7-1.6c-0.3,0.1-0.5,0.1-0.7,0.1c-0.5,0.2-0.9,0.5-1.3,0.9
			c-0.7,0.7-1.3,1.6-1.7,2.5c-0.8,1.6-1.4,3.3-1.9,5c-0.5,1.6-0.8,2.9-1.1,4.1l0,0l0,0l-2.2,1.9c-0.2,0.2-0.5,0.5-0.8,0.6
			C207.5,234.8,207.7,234.6,207.9,234.4z"/>
		<path class="st10" d="M260.6,250.4c8.7,3.2,17.2,6.9,25.4,11.1c12.2,6.2,32.7,11.5,37.7,10.7s8.1-6.9,9-15.5l-25.9-12.1
			c0,0-13-1.9-16.9-2.9c-5.4-1.3-26.2-7.4-26.2-7.4L260.6,250.4z"/>
		<path class="st10" d="M302.4,197c0.3,10.3,2.9,48.3,2.9,48.3l27.4,11.5c0,0,0.7-39.6-2.2-57c-2-12.1-6.7-18.6-9.4-21.4
			c-1.2-1.3-2.7-2.1-4.4-2.4C306,174.3,302.2,188.1,302.4,197z"/>
		<path class="st12" d="M305.7,244.6c1.5,0.3,2.9,0.8,4.1,1.6c1.3,0.8,2.4,1.8,3.3,3c0.4,0.5,0.7,1,0.9,1.6c-1.3-1.6-2.8-3-4.5-4.2
			c-1.8-1-3.7-1.8-5.7-2.2C304.5,244.3,305.1,244.4,305.7,244.6z"/>
	</g>
	<g id="freepik--Floor--inject-67">
		<path class="st7" d="M250,454.9c114.1,0,206.6,0.1,206.6,0.3s-92.5,0.3-206.6,0.3s-206.6-0.1-206.6-0.3
			C43.4,455,135.9,454.9,250,454.9z"/>
	</g>
	<g id="freepik--Globe--inject-67">
		<path class="st6" d="M359.4,367.9c0.1-0.4,0.1-0.9,0.2-1.3C359.6,367.1,359.5,367.5,359.4,367.9s-0.1,0.8-0.1,1.2
			C359.3,368.7,359.4,368.3,359.4,367.9z"/>
		<path class="st6" d="M360.5,375.9c-0.6,0-1.1-0.2-1.5-0.6c0.1,0.8,0.1,1.7,0.3,2.5c0.3,2.1,0.7,4.2,1.4,6.2c0.6,2,1.4,3.9,2.4,5.7
			c0.7,1.3,1.4,2.5,2.2,3.6c0.3,0.4,0.5,0.8,0.8,1.2c0.6,0.8,1.1,1.5,1.8,2.2c0.9,1,1.8,2,2.8,2.9c2.4,2.2,5,4,7.8,5.5l0,0
			c11.4,6,25.1,5.6,36.1-0.9c0-0.1,0-0.1,0.1-0.2c0.8-1.8,0.9-4.3-0.9-5.2c-0.4-0.1-0.7-0.3-1-0.5c-0.8-0.7-0.1-2.2-0.9-3
			c-0.4-0.4-1.1-0.4-1.7-0.6c-0.9-0.6-1.4-1.7-1.2-2.7c0.2-1,0.3-2.1,0.3-3.1c-0.2-1.6-1.5-3.2-0.7-4.7c0.8-1.6,3.2-1.4,4.8-2.1
			c2.3-1,3-3.9,4.5-5.9c1.4-1.8,4.5-3.8,6.9-3.2c1.4,0.2,2.4,1.3,2.5,2.7h0.2c0.7-0.1,1.3,0,1.8-0.6s0-1.5,0.4-2.1
			c0.3-0.3,0.6-0.5,0.9-0.7c0.3-0.3,0.5-0.7,0.4-1s-0.6-0.3-0.8-0.6c-0.2-0.2-0.2-0.5,0-0.7c0.7-0.8,1.4,0.8,1.8,1.2
			c0.1,0.1,0.2,0.2,0.3,0.3c0-0.8-0.1-1.5-0.1-2.3c-0.1-0.7-0.2-1.5-0.3-2.2l0,0c-0.3-0.7-0.5-1.5-0.7-2.3c-0.1-0.9-0.5-1.7-1.1-2.4
			c-0.7-0.6-1.8-0.6-2.4,0.1c-0.3,0.6-0.4,1.2-0.2,1.9c0.1,0.9,0.3,1.7,0.4,2.6c0.1,0.3,0.1,0.5,0,0.8c-0.3,0.5-1.2,0.4-1.5,0
			c-0.3-0.5-0.4-1.1-0.2-1.7c0.2-0.6,0.2-1.2,0-1.8c-0.6-1.4-2.6-1.2-3.8-2.1c-0.7-0.6-1.2-1.4-1.5-2.3c-0.4-0.9-1.2-1.5-2.1-1.6
			c-0.3,0-0.6,0.1-0.9,0.1c-0.2,0-0.4-0.1-0.6-0.3c-0.5-0.4-0.6-1.2-0.2-1.7c0.2-0.1,0.3-0.3,0.4-0.4c0.1-0.3,0-0.7-0.3-0.9
			c-0.3-0.2-0.6-0.3-1-0.3l-2.4-0.4c-0.9-0.1-2-0.7-1.9-1.4c0.1-0.7,1.1-1.1,1.3-1.8c0-0.2,0-0.4,0.1-0.5c0.2-0.5,1-0.3,1.4,0
			c0-0.1,0.1-0.2,0.1-0.3c0.4-0.5,1.1-0.6,1.6-0.3c0.4,0.5,0.6,1,0.7,1.6c0.5,1.3,1.4,2.5,2.6,3.4c0.3,0.4,0.8,0.6,1.2,0.7
			c0.5,0,0.9-0.6,0.8-0.9s-0.6-0.4-0.5-0.8s0.8-0.4,0.9-0.8c-0.3-1.2-1.6-1.6-2.6-2.2c-1.2-0.7-2.2-1.9-2.7-3.3
			c-0.1-0.2-0.1-0.5,0-0.7c0.2-0.3,0.6-0.3,0.9-0.3c0.7,0,1.7,0.1,2,0.8c0.1,0.4,0.1,0.8,0.1,1.2c0.3,1.2,2,1.3,3,2
			c0.4,0.3,0.7,0.6,1.1,0.9c0.5,0.2,1,0.3,1.6,0.3h0.3c0.3,0.4,0.6,0.9,0.9,1.3c-0.3-0.4-0.6-0.9-0.9-1.3c-0.4-0.5-0.7-0.9-1.1-1.5
			c-0.4-0.6-0.9-1.1-1.4-1.7c-1.4-1.6-2.9-3-4.6-4.3c-0.3-0.2-0.6-0.4-0.9-0.7s-0.6-0.5-1-0.7l-0.9-0.6l-0.3-0.2l-0.8-0.5l0,0
			c-0.3-0.2-0.6-0.3-0.9-0.5c-0.3-0.2-0.6-0.3-0.9-0.5l0,0l-0.9-0.5c-0.3-0.2-0.6-0.3-0.9-0.4c-0.4-0.2-0.7-0.3-1.1-0.5l-0.9-0.4
			l0,0c-0.3-0.1-0.7-0.3-1-0.4l0,0l-1-0.3l0,0c-0.4-0.1-0.8-0.3-1.2-0.4l-0.7-0.2l-0.8-0.2c-0.5-0.1-1.1-0.2-1.6-0.3
			c-0.2,0-0.4-0.1-0.7-0.1l-0.8-0.1l-0.8-0.1l-0.8-0.1l-0.8-0.1c-1.1-0.1-2.2-0.1-3.3-0.1c-0.4,0-0.8,0-1.2,0s-0.8,0.1-1.2,0.1
			l-1.1,0.1l-0.5,0.1h-0.2c-0.6,0.1-1.1,0.1-1.7,0.2l-0.4,0.1h-0.1l-0.9,0.2l0,0c-0.8,0.1-1.6,0.3-2.3,0.5c-0.4,0.1-0.8,0.2-1.1,0.3
			l-1.1,0.4c-0.4,0.1-0.7,0.3-1.1,0.4l-1,0.4l-0.9,0.4l-0.6,0.3l-0.1,0l-0.7,0.3c-0.2,0.1-0.3,0.2-0.5,0.3c-0.3,0.2-0.7,0.3-1,0.5
			L378,341l-0.5,0.2l-0.6,0.3l-0.6,0.3l-0.6,0.4l-0.5,0.4c-0.8,0.5-1.5,1-2.2,1.6l0,0l-0.8,0.6l-0.6,0.5l-0.6,0.5
			c-0.2,0.2-0.4,0.4-0.7,0.6s-0.6,0.6-0.8,0.8s-0.3,0.3-0.4,0.5l-0.2,0.1l-0.1,0.1c-0.2,0.2-0.4,0.4-0.5,0.6l-0.2,0.2l-0.5,0.6
			c-0.2,0.2-0.3,0.4-0.5,0.5s-0.2,0.3-0.4,0.5s-0.3,0.4-0.6,0.7c-0.2,0.3-0.5,0.7-0.7,0.9c-0.2,0.2-0.2,0.3-0.5,0.7
			c-0.3,0.4-0.5,0.8-0.8,1.2c-1.2,1.9-2.2,3.9-3,6c0,0.1-0.1,0.2-0.1,0.3c0.2-0.3,0.4-0.7,0.6-1c2-3.2,5-5.7,7.3-8.8
			c0.7-1,1.3-1.8,2.6-2c1.9-0.3,2.9,0.8,4.3-1c0.4-0.5,1-0.9,1.6-0.6c-0.1,0.4-0.3,0.8-0.4,1.2c0,0.1,0,0.2,0,0.3
			c0,0.3,0.4,0.3,0.7,0.2c0.2-0.2,0.4-0.4,0.5-0.6c0,0,0.1-0.1,0.1-0.1c0.7-0.8,1.9-0.8,2.7-0.1c0-0.4,0.3-0.7,0.6-0.9
			c0,0,0,0.1,0,0.1c0.2,0.7,0.9,1.1,1.6,0.9c0.1-0.4-0.5-0.4-0.8-0.7c-0.2-0.3,0-0.7,0.3-0.9c0.7-0.6,1.6-1,2.5-1
			c0.6,0.1,1.2,0,1.7-0.2c0.3-0.2,0.5-0.5,0.8-0.6c0.7-0.2,1.4-0.2,2,0.2c0.9,0.4,1.7,1.1,2.1,2.1c0.3,1-0.4,2.3-1.4,2.1
			c-0.3-0.1-0.5-0.1-0.8-0.1c-0.3,0.2-0.6,0.5-0.6,0.9c0,0.4,0,0.7-0.2,1.1c-0.2,0.3-0.7,0.5-0.9,0.2c-0.4-0.5-0.5-1.2-0.3-1.9
			c0.2-0.6,0.2-1.3-0.1-1.9c-0.4-0.5-1.5-0.4-1.4,0.3c0.1,0.3,0.5,0.6,0.5,1c0,0.4-0.5,0.6-0.9,0.6c-0.4-0.1-0.8-0.1-1.2-0.1
			c-0.4,0.1-0.7,0.6-0.4,0.9c0.5,0.5,1.8-0.4,2,0.3c0.1,0.2,0,0.4,0,0.5c0,0.6,0.8,0.8,1.3,0.8c0.6,0.1,1.2,0.1,1.7-0.1c0,0,0,0,0,0
			c0.5-0.2,0.8-0.9,0.5-1.4c0,0,0,0,0,0c0.3-0.1,0.7,0,0.9,0.3c0.1,0.3,0.2,0.7,0.1,1c0.6-0.1,1.1,0.4,1.5,0.9
			c0.4,0.5,0.7,1.1,1.3,1.3c0.6,0.2,1.4-0.1,1.7,0.5c0.4,0.7-0.8,1.6-0.4,2.3c0.2,0.4,0.8,0.4,1.2,0.5c0.2,0.1,0.4,0.2,0.5,0.3
			c0.8,0.6,0.9,1.8,0.3,2.6c-0.9,0.9-2.3,0.9-3.2,0c-0.5-0.7-0.9-1.4-1.3-2.1c-0.4-0.8-1.2-1.2-2-1.1c-0.3,0.1-0.6,0.3-0.8,0.5
			l-1.2,1c-0.3,0.2-0.5,0.5-0.5,0.8c0,0.3,0.2,0.5,0.3,0.7c0.3,0.7-0.8,1.4-1.4,1c0,0,0,0,0,0c-0.6-0.5-0.7-1.3-0.2-1.9
			c0.6-0.8,1.9-1.3,1.9-2.3c-0.7-0.6-1.8,0-2.2,0.8c-0.4,0.8-0.4,1.7-0.8,2.6s-1.3,1.6-2.1,1.2c0.2-0.7,0.4-1.4,0.6-2.1
			c-0.5-0.4-1.1,0.7-1.7,0.5c-0.4-0.1-0.4-0.6-0.3-1c0.2-0.3,0.4-0.6,0.5-1c0-0.1,0-0.2,0-0.2c-0.1-0.6-0.7-1.1-1.4-1
			c-0.7,0.2-1.3,0.8-1.4,1.5c0,0.3-0.1,0.6-0.2,0.8c-0.3,0.6-1,0.8-1.5,1c-0.6,0.2-1.2,0.8-0.9,1.4c0.1,0.3,0.4,0.5,0.3,0.7
			c-0.1,0.2-0.4,0.4-0.4,0.6s0.2,0.3,0.3,0.3c0.4,0.2,0.8,0.2,1.2,0.4c0.4,0.1,0.7,0.5,0.7,0.9c-0.1,0.6-0.7,0.9-1.1,1.3
			s-0.3,1.1-0.5,1.6c-0.2,0.5-0.5,0.9-0.9,1.3c-1,1.3-1.2,3-1.7,4.5c-0.2,0.7-0.6,1.5-1.3,1.6c-0.4,0-0.8,0-1.2-0.2
			c-1.1-0.3-2-0.9-2.9-1.7c-0.8-0.8-0.9-2.1-0.2-3c0.1-0.1,0.2-0.2,0.4-0.2c0.2,0,0.4,0.1,0.5,0.2c0.6,0.2,1.2,0.1,1.6-0.4
			c0.4-0.4,0.8-0.9,1-1.4c0.3-0.6,0.6-1.1,0.9-1.7c-0.4-0.3-0.9-0.2-1.3,0.1c-0.3,0.3-0.6,0.6-0.9,1c-1,1-2.3,1.6-3.7,1.7
			c-0.3,0-0.7,0.1-1,0.2c-1,0.5-1.3,2-2.4,2.3c-0.3,0-0.6,0.1-0.9,0.2c-0.4,0.2-0.7,0.7-0.8,1.1c-0.2,0.9-0.4,1.7-0.7,2.5
			C362.3,375.2,361.5,375.8,360.5,375.9z"/>
		<path class="st6" d="M403.5,345.5l-2.8-0.6c-0.5-0.1-0.9-0.3-1.2-0.6c-0.4-0.4-0.3-1.1-0.5-1.6c-0.4-0.8-1.5-1.1-1.9-2
			c-0.2-0.4-0.2-0.8-0.5-1s-0.6-0.2-0.8-0.4c-0.6-0.4-0.3-1.3,0.3-1.7c1.4-1,4.1,0.1,5.3,1c1.6,1.2,3.2,2.5,5.3,2.4
			c0.6-0.1,1.2-0.1,1.8,0c0.6,0.2,0.9,1,0.4,1.4c-0.3,0.2-0.6,0.1-0.9,0.3c-0.5,0.4-0.7,1-0.3,1.6c0.3,0.5,0.8,0.9,1.1,1.5
			c0.3,0.5,0.4,1.1,0.4,1.7c0,0.4-0.2,0.8-0.5,1.1c-0.7,0.5-1.7,0.1-2.2-0.5s-1-1.4-1.7-1.9C404.3,345.7,403.9,345.6,403.5,345.5z"
			/>
		<path class="st6" d="M378.1,388.2c-0.6-1.3-0.1-2.9-0.7-4.2c-0.7-1.8-2.7-2.6-4.2-3.8c-1.4-1.2-2-4.1-0.2-4.7
			c0.7-0.3,1.5,0,2.1-0.3c0.8-0.5,1.4-1.3,1.6-2.2l2.5-7c0.5-1.4,1.3-3,2.8-3.2c0.8,0,1.7,0.2,2.5,0.4c2.9,0.5,7.7-6.4,9.9-1.7
			c0.3-1.3,2.3-0.8,3,0.3c0.7,1.1,0.8,2.6,1.8,3.4c0.8,0.6,2,0.6,2.6,1.4c0.4,0.6,0.6,1.3,0.6,2l0.3,4c0.2,1.1,0.1,2.2-0.4,3.1
			c0,0.1-0.1,0.1-0.1,0.2c-0.6,0.9-1.7,1.1-2.6,0.6c-0.3-0.4-0.6-0.8-0.8-1.2c-0.5-0.6-1.4-0.9-2.1-0.7c-0.6,0.2-1.2,0.6-1.6,1.1
			c-3.8,4-5.1,9.7-5.3,15.1c0,1-0.1,2-0.4,2.9c-0.4,1.1-1.4,2-1.6,3.1c0,0.9-0.2,1.8-0.4,2.6c-0.7,1.5-3,1.6-4.3,0.5
			c-1.2-1.2-1.9-2.8-2-4.4c-0.1-1.7-0.6-3.3-1.4-4.7C379.2,389.9,378.6,389.1,378.1,388.2z"/>
		<path class="st6" d="M373.9,387.4c0.6,0.1,0.6,0.3,1,0.8s0.9,1.1,1.3,1.6c0.6,0.9,0.1,2.3,0.8,3c0.2,0.1,0.3,0.3,0.5,0.4
			c0,0,0,0,0,0c0.3,0.4,0.2,1-0.2,1.3c-0.4,0.3-1,0.3-1.4,0c-0.4-0.3-0.7-0.7-0.8-1.1c0-0.3-0.2-0.7-0.4-0.9
			c-0.5-0.4-1.2-0.1-1.7-0.2C370.5,391.9,371.5,386.9,373.9,387.4z"/>
		<path class="st6" d="M425.8,386.2c-3.4,4.5-5.3,10-7.3,15.3c0.9-0.7,1.7-1.4,2.5-2.1c0.9-0.8,1.8-1.7,2.6-2.6
			c0.6-0.7,1.1-1.3,1.7-2.1s1.2-1.6,1.6-2.3c0.4-0.7,0.8-1.3,1.2-2c0.9-1.5,1.6-3.1,2.3-4.8c1.4-3.7,2.2-7.6,2.3-11.5
			c0-0.1,0-0.2,0-0.3c-0.4,0.1-0.8,0.3-1.1,0.5c-0.7,0.4-1.6,0.9-1.6,1.8c0,0.1,0,0.3-0.1,0.4c-0.1,0.1-0.2,0.2-0.3,0.2
			c-0.6,0.1-1.2,0.2-1.9,0.3c0,0.7,0,1.5,0,2.2c0.2,1,0.2,2.1,0.3,3.1C427.7,383.8,426.7,385,425.8,386.2z"/>
		<path class="st6" d="M432.7,372.8c0,0.2,0,0.4,0,0.5C432.7,373.1,432.7,373,432.7,372.8s0-0.4,0-0.7
			C432.7,372.3,432.7,372.6,432.7,372.8z"/>
		<path class="st6" d="M415.5,403.6l-0.7,0.4L415.5,403.6c0.3-0.2,0.6-0.4,0.9-0.6C416.1,403.2,415.8,403.4,415.5,403.6z"/>
		<path class="st6" d="M432.7,371.4c0,0.2,0,0.4,0,0.6C432.7,371.9,432.7,371.7,432.7,371.4c0-0.1,0-0.1,0-0.2l0,0
			C432.7,371.3,432.7,371.4,432.7,371.4z"/>
		<path class="st6" d="M432.7,373.8L432.7,373.8c0-0.2,0-0.4,0-0.5C432.7,373.5,432.7,373.6,432.7,373.8z"/>
		<path class="st6" d="M427.7,377c0.6,0,1.3-0.1,1.9-0.3c0.1,0,0.3-0.1,0.4-0.2c0.1-0.1,0.1-0.2,0.1-0.4c0-0.8,0.9-1.4,1.6-1.8
			c0.4-0.2,0.7-0.4,1.1-0.5c0-0.2,0-0.4,0-0.5s0-0.3,0-0.5s0-0.4,0-0.7s0-0.4,0-0.6c0-0.1,0-0.1,0-0.2l0,0c-0.1-0.1-0.2-0.2-0.3-0.3
			c-0.4-0.4-1.1-2-1.8-1.2c-0.2,0.2-0.2,0.5,0,0.7c0.2,0.3,0.6,0.2,0.8,0.6s-0.1,0.8-0.4,1c-0.3,0.2-0.7,0.4-0.9,0.7
			c-0.4,0.6-0.1,1.6-0.4,2.1c-0.3,0.5-1.1,0.6-1.8,0.6h-0.2"/>
		<path class="st6" d="M427.7,375.6c-0.1-1.4-1.2-2.5-2.5-2.7c-2.4-0.5-5.6,1.4-6.9,3.2c-1.6,2-2.2,4.9-4.6,5.9
			c-1.7,0.7-4,0.5-4.8,2.1c-0.7,1.4,0.5,3.1,0.7,4.7c0,1.1-0.1,2.1-0.3,3.1c-0.2,1.1,0.3,2.2,1.2,2.7c0.5,0.2,1.2,0.2,1.7,0.6
			c0.8,0.7,0.1,2.2,0.9,3c0.3,0.2,0.6,0.4,1,0.5c1.7,0.9,1.7,3.4,0.9,5.2c0,0.1-0.1,0.1-0.1,0.2l0.7-0.4c0.3-0.2,0.6-0.4,0.9-0.6
			l0.9-0.6c0.4-0.3,0.8-0.6,1.1-0.9l0,0c2-5.3,3.9-10.8,7.3-15.3c0.9-1.2,1.9-2.4,2.1-3.9c0-1.1-0.1-2.1-0.3-3.1
			c-0.1-0.7,0-1.5,0-2.2"/>
		<path class="st6" d="M431.6,364.4c0.1,0.8,0.4,1.6,0.7,2.3c-0.1-0.9-0.4-1.8-0.6-2.7s-0.5-1.8-0.8-2.6c-0.8-2.4-1.9-4.8-3.2-7
			c-0.3-0.5-0.6-0.9-0.9-1.4s-0.6-0.9-0.9-1.3h-0.3c-0.5,0-1.1-0.1-1.5-0.3c-0.4-0.3-0.8-0.6-1.1-0.9c-1.1-0.7-2.7-0.8-3-2
			c0-0.4,0-0.8-0.1-1.2c-0.3-0.7-1.2-0.8-2-0.8c-0.3,0-0.7,0-0.9,0.3c-0.1,0.2-0.1,0.5,0,0.7c0.5,1.4,1.4,2.5,2.7,3.2
			c1,0.6,2.3,1.1,2.6,2.2c-0.1,0.4-0.9,0.4-0.9,0.8s0.3,0.3,0.5,0.8s-0.3,0.9-0.8,0.9c-0.5-0.1-0.9-0.3-1.2-0.7
			c-1.1-0.9-2-2.1-2.6-3.4c-0.1-0.6-0.3-1.2-0.7-1.6c-0.1-0.1-0.2-0.1-0.3-0.1c-0.6-0.2-1.2,0.1-1.5,0.7c-0.4-0.3-1.2-0.5-1.4,0
			c-0.1,0.2-0.1,0.4-0.1,0.5c-0.1,0.7-1.1,0.9-1.3,1.8c-0.1,0.9,1,1.3,1.9,1.4l2.4,0.4c0.4,0,0.7,0.1,1,0.3c0.3,0.2,0.4,0.6,0.3,0.9
			c-0.1,0.2-0.3,0.3-0.4,0.4c-0.1,0.2-0.2,0.4-0.3,0.6c-0.1,0.7,0.4,1.3,1.1,1.4c0.3,0,0.6-0.1,0.9-0.1c1,0.1,1.8,0.7,2.1,1.6
			c0.3,0.9,0.9,1.6,1.5,2.3c1.2,0.9,3.3,0.7,3.9,2.1c0.2,0.6,0.2,1.2,0,1.8c-0.2,0.6-0.1,1.2,0.2,1.7c0.4,0.5,1.2,0.6,1.5,0
			c0.1-0.3,0.1-0.5,0-0.8c-0.1-0.9-0.3-1.7-0.4-2.6c-0.2-0.6-0.1-1.3,0.2-1.9c0.7-0.7,1.7-0.7,2.4-0.1
			C431,362.8,431.4,363.5,431.6,364.4z"/>
		<path class="st6" d="M359.1,372.8c0,0.8,0,1.6,0.1,2.4C359.1,374.4,359.1,373.6,359.1,372.8c0-0.2,0-0.3,0-0.5c0-0.6,0-1,0-1.6
			c0,0.6,0,1,0,1.6C359.1,372.4,359.1,372.6,359.1,372.8z"/>
		<path class="st6" d="M360.9,361.4c0.2-0.5,0.3-0.9,0.5-1.4C361.2,360.5,361.1,360.9,360.9,361.4z"/>
		<path class="st6" d="M359.2,372.9c0,0.8,0,1.6,0.1,2.4l0,0c0.4,0.4,0.9,0.6,1.5,0.6c0.9-0.1,1.7-0.7,2-1.5
			c0.3-0.8,0.5-1.7,0.7-2.5c0.1-0.5,0.4-0.9,0.8-1.1c0.3-0.1,0.6-0.2,0.9-0.2c1.1-0.3,1.4-1.8,2.4-2.3c0.3-0.1,0.7-0.2,1-0.2
			c1.4-0.1,2.7-0.7,3.7-1.7c0.2-0.4,0.5-0.7,0.9-1c0.3-0.3,0.9-0.4,1.3-0.1c-0.3,0.6-0.6,1.1-0.9,1.7c-0.2,0.5-0.6,1-1,1.4
			c-0.4,0.4-1.1,0.6-1.6,0.4c-0.2-0.1-0.3-0.2-0.5-0.2c-0.1,0-0.3,0.1-0.4,0.2c-0.7,0.9-0.6,2.2,0.2,3c0.8,0.8,1.8,1.4,2.9,1.7
			c0.4,0.2,0.8,0.3,1.2,0.2c0.7-0.1,1.1-0.9,1.3-1.6c0.5-1.5,0.7-3.2,1.7-4.5c0.3-0.4,0.6-0.8,0.9-1.3c0.2-0.5,0.1-1.1,0.5-1.6
			s1.1-0.8,1.1-1.3c0-0.4-0.3-0.8-0.7-0.9c-0.4-0.2-0.8-0.2-1.2-0.4c-0.1-0.1-0.3-0.1-0.3-0.3s0.3-0.3,0.4-0.6s-0.2-0.5-0.3-0.7
			c-0.2-0.6,0.4-1.1,0.9-1.4c0.5-0.3,1.3-0.5,1.5-1c0.1-0.3,0.2-0.5,0.2-0.8c0.1-0.7,0.7-1.3,1.4-1.5c0.1,0,0.2,0,0.2,0
			c0.7,0,1.2,0.6,1.2,1.2c-0.1,0.4-0.3,0.7-0.5,1c-0.2,0.4-0.1,0.9,0.3,1c0.6,0.2,1.2-0.9,1.7-0.5c-0.2,0.7-0.4,1.4-0.6,2.1
			c0.8,0.4,1.8-0.3,2.1-1.2c0.4-0.8,0.4-1.7,0.8-2.6s1.5-1.4,2.2-0.8c0.1,1-1.3,1.4-1.9,2.3c0,0,0,0,0,0c-0.4,0.6-0.3,1.5,0.3,1.9
			c0.6,0.4,1.7-0.3,1.4-1c-0.1-0.2-0.3-0.4-0.3-0.7c0-0.3,0.2-0.6,0.5-0.8l1.2-1c0.2-0.2,0.5-0.4,0.8-0.5c0.8-0.1,1.6,0.4,2,1.1
			c0.3,0.8,0.7,1.5,1.3,2.1c0.9,0.9,2.3,0.9,3.2,0c0.1-0.2,0.2-0.3,0.3-0.5c0.4-1-0.1-2-1.1-2.4c-0.4-0.1-1-0.1-1.2-0.5
			c-0.4-0.7,0.8-1.6,0.4-2.3c-0.3-0.5-1.1-0.3-1.7-0.5s-0.9-0.8-1.3-1.3s-0.9-1-1.5-0.9c0.1-0.3,0.1-0.7-0.1-1c0,0,0,0,0,0
			c-0.2-0.3-0.6-0.4-0.9-0.3c0,0,0,0,0,0c0.2,0.5,0,1.1-0.6,1.4c-0.5,0.2-1.1,0.2-1.7,0.1c-0.6-0.1-1.3-0.3-1.3-0.8
			c0-0.2,0.1-0.4,0-0.5c-0.3-0.7-1.5,0.3-2-0.3c-0.3-0.3,0-0.8,0.4-0.9c0.4,0,0.8,0,1.2,0.1c0.4,0,0.9-0.2,0.9-0.6s-0.5-0.6-0.5-1
			c-0.1-0.6,1-0.8,1.4-0.3c0.3,0.6,0.3,1.3,0.1,1.9c-0.2,0.6-0.1,1.3,0.3,1.9c0.2,0.3,0.7,0.1,0.9-0.2c0.1-0.3,0.2-0.7,0.2-1.1
			c0-0.4,0.2-0.7,0.6-0.9c0.3,0,0.5,0,0.8,0.1c1,0.1,1.7-1.1,1.4-2.1c-0.4-0.9-1.2-1.7-2.1-2.1c-0.6-0.5-1.4-0.6-2.1-0.3
			c-0.3,0.2-0.5,0.4-0.8,0.6c-0.6,0.2-1.1,0.3-1.7,0.2c-0.9,0-1.8,0.4-2.5,1c-0.3,0.2-0.5,0.6-0.3,0.9s0.9,0.4,0.8,0.7
			c0,0-0.1,0-0.1,0c-0.7,0.1-1.4-0.3-1.5-1c-0.3,0.1-0.6,0.5-0.6,0.9c0,0-0.1-0.1-0.1-0.1c-0.8-0.7-2-0.5-2.7,0.3
			c-0.1,0.2-0.3,0.5-0.5,0.6c-0.2,0.1-0.7,0.1-0.7-0.2c0-0.1,0-0.2,0-0.3c0.1-0.4,0.3-0.8,0.4-1.2c-0.5-0.3-1.2,0.2-1.5,0.6
			c-1.4,1.8-2.3,0.7-4.3,1c-1.3,0.2-1.9,1-2.6,2c-2.3,3.1-5.3,5.6-7.3,8.8c-0.2,0.3-0.4,0.7-0.6,1l0,0c-0.2,0.5-0.4,0.9-0.5,1.4
			s-0.3,0.9-0.4,1.4c-0.4,1.2-0.6,2.5-0.9,3.8c-0.1,0.4-0.1,0.9-0.2,1.3s-0.1,0.7-0.1,1.2s-0.1,1-0.1,1.5s0,1,0,1.6
			C359.1,372.4,359.1,372.6,359.2,372.9z"/>
		<path class="st6" d="M373,392.2c0.6,0.1,1.3-0.2,1.7,0.2c0.2,0.3,0.4,0.6,0.4,0.9c0.1,0.5,0.4,0.9,0.8,1.1c0.4,0.3,1,0.3,1.4,0
			c0,0,0,0,0,0c0.4-0.3,0.5-0.9,0.2-1.3c-0.2-0.2-0.3-0.3-0.5-0.4c-0.8-0.8-0.3-2.1-0.9-3c-0.4-0.5-1-1.2-1.3-1.6s-0.4-0.7-1-0.8
			C371.5,386.9,370.5,391.9,373,392.2z"/>
		<g class="st9">
			<path d="M359.4,367.9c0.1-0.4,0.1-0.9,0.2-1.3C359.6,367.1,359.5,367.5,359.4,367.9s-0.1,0.8-0.1,1.2
				C359.3,368.7,359.4,368.3,359.4,367.9z"/>
		</g>
		<g class="st9">
			<path d="M403.5,345.5l-2.8-0.6c-0.5-0.1-0.9-0.3-1.2-0.6c-0.4-0.4-0.3-1.1-0.5-1.6c-0.4-0.8-1.5-1.1-1.9-2
				c-0.2-0.4-0.2-0.8-0.5-1s-0.6-0.2-0.8-0.4c-0.6-0.4-0.3-1.3,0.3-1.7c1.4-1,4.1,0.1,5.3,1c1.6,1.2,3.2,2.5,5.3,2.4
				c0.6-0.1,1.2-0.1,1.8,0c0.6,0.2,0.9,1,0.4,1.4c-0.3,0.2-0.6,0.1-0.9,0.3c-0.5,0.4-0.7,1-0.3,1.6c0.3,0.5,0.8,0.9,1.1,1.5
				c0.3,0.5,0.4,1.1,0.4,1.7c0,0.4-0.2,0.8-0.5,1.1c-0.7,0.5-1.7,0.1-2.2-0.5s-1-1.4-1.7-1.9C404.3,345.7,403.9,345.6,403.5,345.5z"
				/>
		</g>
		<g class="st9">
			<path d="M378.1,388.2c-0.6-1.3-0.1-2.9-0.7-4.2c-0.7-1.8-2.7-2.6-4.2-3.8c-1.4-1.2-2-4.1-0.2-4.7c0.7-0.3,1.5,0,2.1-0.3
				c0.8-0.5,1.4-1.3,1.6-2.2l2.5-7c0.5-1.4,1.3-3,2.8-3.2c0.8,0,1.7,0.2,2.5,0.4c2.9,0.5,7.7-6.4,9.9-1.7c0.3-1.3,2.3-0.8,3,0.3
				c0.7,1.1,0.8,2.6,1.8,3.4c0.8,0.6,2,0.6,2.6,1.4c0.4,0.6,0.6,1.3,0.6,2l0.3,4c0.2,1.1,0.1,2.2-0.4,3.1c0,0.1-0.1,0.1-0.1,0.2
				c-0.6,0.9-1.7,1.1-2.6,0.6c-0.3-0.4-0.6-0.8-0.8-1.2c-0.5-0.6-1.4-0.9-2.1-0.7c-0.6,0.2-1.2,0.6-1.6,1.1c-3.8,4-5.1,9.7-5.3,15.1
				c0,1-0.1,2-0.4,2.9c-0.4,1.1-1.4,2-1.6,3.1c0,0.9-0.2,1.8-0.4,2.6c-0.7,1.5-3,1.6-4.3,0.5c-1.2-1.2-1.9-2.8-2-4.4
				c-0.1-1.7-0.6-3.3-1.4-4.7C379.2,389.9,378.6,389.1,378.1,388.2z"/>
		</g>
		<g class="st9">
			<path d="M432.7,372.8c0,0.2,0,0.4,0,0.5C432.7,373.1,432.7,373,432.7,372.8s0-0.4,0-0.7C432.7,372.3,432.7,372.6,432.7,372.8z"/>
		</g>
		<g class="st9">
			<path d="M415.5,403.6l-0.7,0.4L415.5,403.6c0.3-0.2,0.6-0.4,0.9-0.6C416.1,403.2,415.8,403.4,415.5,403.6z"/>
		</g>
		<g class="st9">
			<path d="M432.7,371.4c0,0.2,0,0.4,0,0.6C432.7,371.9,432.7,371.7,432.7,371.4c0-0.1,0-0.1,0-0.2l0,0
				C432.7,371.3,432.7,371.4,432.7,371.4z"/>
		</g>
		<g class="st9">
			<path d="M432.7,373.8L432.7,373.8c0-0.2,0-0.4,0-0.5C432.7,373.5,432.7,373.6,432.7,373.8z"/>
		</g>
		<g class="st9">
			<path d="M409.2,391.9c-0.2,1.1,0.3,2.2,1.2,2.7c0.5,0.2,1.2,0.2,1.7,0.6c0.8,0.7,0.1,2.2,0.9,3c0.3,0.2,0.6,0.4,1,0.5
				c1.7,0.9,1.7,3.4,0.9,5.2c0,0.1-0.1,0.1-0.1,0.2l0.7-0.4c0.3-0.2,0.6-0.4,0.9-0.6l0.9-0.6c0.4-0.3,0.8-0.6,1.1-0.9l0,0
				c0.9-0.7,1.7-1.4,2.5-2.1c0.9-0.8,1.8-1.7,2.6-2.6c0.6-0.7,1.1-1.3,1.7-2.1c0.6-0.7,1.2-1.6,1.6-2.3c0.4-0.7,0.8-1.3,1.2-2
				c0.9-1.5,1.6-3.1,2.2-4.8c1.4-3.7,2.2-7.6,2.3-11.5c0-0.1,0-0.2,0-0.3c0-0.2,0-0.4,0-0.5s0-0.3,0-0.5s0-0.4,0-0.7s0-0.4,0-0.6
				c0-0.1,0-0.1,0-0.2l0,0c-0.1-0.1-0.2-0.2-0.3-0.3c-0.4-0.4-1.1-2-1.8-1.2c-0.2,0.2-0.2,0.5,0,0.7c0.2,0.3,0.6,0.2,0.8,0.6
				s-0.1,0.8-0.4,1c-0.3,0.2-0.7,0.4-0.9,0.7c-0.4,0.6-0.1,1.6-0.4,2.1c-0.3,0.5-1.1,0.6-1.8,0.6h-0.2c-0.1-1.4-1.2-2.5-2.5-2.7
				c-2.4-0.5-5.6,1.4-6.9,3.2c-1.5,2-2.2,4.9-4.5,5.9c-1.7,0.7-4,0.5-4.8,2.1c-0.7,1.4,0.5,3.1,0.7,4.7
				C409.5,389.8,409.4,390.8,409.2,391.9z M429.9,376.5c0.1-0.1,0.1-0.2,0.1-0.4C430,376.3,430,376.4,429.9,376.5z"/>
		</g>
		<g class="st9">
			<path d="M431.6,364.4c0.1,0.8,0.4,1.6,0.7,2.3c-0.1-0.9-0.4-1.8-0.6-2.7s-0.5-1.8-0.8-2.6c-0.8-2.4-1.9-4.8-3.2-7
				c-0.3-0.5-0.6-0.9-0.9-1.4s-0.6-0.9-0.9-1.3h-0.3c-0.5,0-1.1-0.1-1.5-0.3c-0.4-0.3-0.8-0.6-1.1-0.9c-1.1-0.7-2.7-0.8-3-2
				c0-0.4,0-0.8-0.1-1.2c-0.3-0.7-1.2-0.8-2-0.8c-0.3,0-0.7,0-0.9,0.3c-0.1,0.2-0.1,0.5,0,0.7c0.5,1.4,1.4,2.5,2.7,3.2
				c1,0.6,2.3,1.1,2.6,2.2c-0.1,0.4-0.9,0.4-0.9,0.8s0.3,0.3,0.5,0.8s-0.3,0.9-0.8,0.9c-0.5-0.1-0.9-0.3-1.2-0.7
				c-1.1-0.9-2-2.1-2.6-3.4c-0.1-0.6-0.3-1.2-0.7-1.6c-0.1-0.1-0.2-0.1-0.3-0.1c-0.6-0.2-1.2,0.1-1.5,0.7c-0.4-0.3-1.2-0.5-1.4,0
				c-0.1,0.2-0.1,0.4-0.1,0.5c-0.1,0.7-1.1,0.9-1.3,1.8c-0.1,0.9,1,1.3,1.9,1.4l2.4,0.4c0.4,0,0.7,0.1,1,0.3
				c0.3,0.2,0.4,0.6,0.3,0.9c-0.1,0.2-0.3,0.3-0.4,0.4c-0.1,0.2-0.2,0.4-0.3,0.6c-0.1,0.7,0.4,1.3,1.1,1.4c0.3,0,0.6-0.1,0.9-0.1
				c1,0.1,1.8,0.7,2.1,1.6c0.3,0.9,0.9,1.6,1.5,2.3c1.2,0.9,3.3,0.7,3.9,2.1c0.2,0.6,0.2,1.2,0,1.8c-0.2,0.6-0.1,1.2,0.2,1.7
				c0.4,0.5,1.2,0.6,1.5,0c0.1-0.3,0.1-0.5,0-0.8c-0.1-0.9-0.3-1.7-0.4-2.6c-0.2-0.6-0.1-1.3,0.2-1.9c0.7-0.7,1.7-0.7,2.4-0.1
				C431,362.8,431.4,363.5,431.6,364.4z"/>
		</g>
		<g class="st9">
			<path d="M359.1,372.8c0,0.8,0,1.6,0.1,2.4C359.1,374.4,359.1,373.6,359.1,372.8c0-0.2,0-0.3,0-0.5c0-0.6,0-1,0-1.6
				c0,0.6,0,1,0,1.6C359.1,372.4,359.1,372.6,359.1,372.8z"/>
		</g>
		<g class="st9">
			<path d="M360.9,361.4c0.2-0.5,0.3-0.9,0.5-1.4C361.2,360.5,361.1,360.9,360.9,361.4z"/>
		</g>
		<g class="st9">
			<path d="M359.2,372.9c0,0.8,0,1.6,0.1,2.4l0,0c0.4,0.4,0.9,0.6,1.5,0.6c0.9-0.1,1.7-0.7,2-1.5c0.3-0.8,0.5-1.7,0.7-2.5
				c0.1-0.5,0.4-0.9,0.8-1.1c0.3-0.1,0.6-0.2,0.9-0.2c1.1-0.3,1.4-1.8,2.4-2.3c0.3-0.1,0.7-0.2,1-0.2c1.4-0.1,2.7-0.7,3.7-1.7
				c0.2-0.4,0.5-0.7,0.9-1c0.3-0.3,0.9-0.4,1.3-0.1c-0.3,0.6-0.6,1.1-0.9,1.7c-0.2,0.5-0.6,1-1,1.4c-0.4,0.4-1.1,0.6-1.6,0.4
				c-0.2-0.1-0.3-0.2-0.5-0.2c-0.1,0-0.3,0.1-0.4,0.2c-0.7,0.9-0.6,2.2,0.2,3c0.8,0.8,1.8,1.4,2.9,1.7c0.4,0.2,0.8,0.3,1.2,0.2
				c0.7-0.1,1.1-0.9,1.3-1.6c0.5-1.5,0.7-3.2,1.7-4.5c0.3-0.4,0.6-0.8,0.9-1.3c0.2-0.5,0.1-1.1,0.5-1.6s1.1-0.8,1.1-1.3
				c0-0.4-0.3-0.8-0.7-0.9c-0.4-0.2-0.8-0.2-1.2-0.4c-0.1-0.1-0.3-0.1-0.3-0.3s0.3-0.3,0.4-0.6s-0.2-0.5-0.3-0.7
				c-0.2-0.6,0.4-1.1,0.9-1.4c0.5-0.3,1.3-0.5,1.5-1c0.1-0.3,0.2-0.5,0.2-0.8c0.1-0.7,0.7-1.3,1.4-1.5c0.1,0,0.2,0,0.2,0
				c0.7,0,1.2,0.6,1.2,1.2c-0.1,0.4-0.3,0.7-0.5,1c-0.2,0.4-0.1,0.9,0.3,1c0.6,0.2,1.2-0.9,1.7-0.5c-0.2,0.7-0.4,1.4-0.6,2.1
				c0.8,0.4,1.8-0.3,2.1-1.2c0.4-0.8,0.4-1.7,0.8-2.6s1.5-1.4,2.2-0.8c0.1,1-1.3,1.4-1.9,2.3c0,0,0,0,0,0c-0.4,0.6-0.3,1.5,0.3,1.9
				c0.6,0.4,1.7-0.3,1.4-1c-0.1-0.2-0.3-0.4-0.3-0.7c0-0.3,0.2-0.6,0.5-0.8l1.2-1c0.2-0.2,0.5-0.4,0.8-0.5c0.8-0.1,1.6,0.4,2,1.1
				c0.3,0.8,0.7,1.5,1.3,2.1c0.9,0.9,2.3,0.9,3.2,0c0.1-0.2,0.2-0.3,0.3-0.5c0.4-1-0.1-2-1.1-2.4c-0.4-0.1-1-0.1-1.2-0.5
				c-0.4-0.7,0.8-1.6,0.4-2.3c-0.3-0.5-1.1-0.3-1.7-0.5s-0.9-0.8-1.3-1.3s-0.9-1-1.5-0.9c0.1-0.3,0.1-0.7-0.1-1c0,0,0,0,0,0
				c-0.2-0.3-0.6-0.4-0.9-0.3c0,0,0,0,0,0c0.2,0.5,0,1.1-0.6,1.4c-0.5,0.2-1.1,0.2-1.7,0.1c-0.6-0.1-1.3-0.3-1.3-0.8
				c0-0.2,0.1-0.4,0-0.5c-0.3-0.7-1.5,0.3-2-0.3c-0.3-0.3,0-0.8,0.4-0.9c0.4,0,0.8,0,1.2,0.1c0.4,0,0.9-0.2,0.9-0.6s-0.5-0.6-0.5-1
				c-0.1-0.6,1-0.8,1.4-0.3c0.3,0.6,0.3,1.3,0.1,1.9c-0.2,0.6-0.1,1.3,0.3,1.9c0.2,0.3,0.7,0.1,0.9-0.2c0.1-0.3,0.2-0.7,0.2-1.1
				c0-0.4,0.2-0.7,0.6-0.9c0.3,0,0.5,0,0.8,0.1c1,0.1,1.7-1.1,1.4-2.1c-0.4-0.9-1.2-1.7-2.1-2.1c-0.6-0.5-1.4-0.6-2.1-0.3
				c-0.3,0.2-0.5,0.4-0.8,0.6c-0.6,0.2-1.1,0.3-1.7,0.2c-0.9,0-1.8,0.4-2.5,1c-0.3,0.2-0.5,0.6-0.3,0.9s0.9,0.4,0.8,0.7
				c0,0-0.1,0-0.1,0c-0.7,0.1-1.4-0.3-1.5-1c-0.3,0.1-0.6,0.5-0.6,0.9c0,0-0.1-0.1-0.1-0.1c-0.8-0.7-2-0.5-2.7,0.3
				c-0.1,0.2-0.3,0.5-0.5,0.6c-0.2,0.1-0.7,0.1-0.7-0.2c0-0.1,0-0.2,0-0.3c0.1-0.4,0.3-0.8,0.4-1.2c-0.5-0.3-1.2,0.2-1.5,0.6
				c-1.4,1.8-2.3,0.7-4.3,1c-1.3,0.2-1.9,1-2.6,2c-2.3,3.1-5.3,5.6-7.3,8.8c-0.2,0.3-0.4,0.7-0.6,1l0,0c-0.2,0.5-0.4,0.9-0.5,1.4
				s-0.3,0.9-0.4,1.4c-0.4,1.2-0.6,2.5-0.9,3.8c-0.1,0.4-0.1,0.9-0.2,1.3s-0.1,0.7-0.1,1.2s-0.1,1-0.1,1.5s0,1,0,1.6
				C359.1,372.4,359.1,372.6,359.2,372.9z"/>
		</g>
		<rect x="393.5" y="411.8" class="st7" width="4.7" height="16.6"/>
		<path class="st7" d="M369.7,403.4l-0.5-0.4l2.6-2.6l0.8,0.8l-1.7,1.6c7.1,5.6,15.9,8.7,25,8.7c22,0,39.9-17.7,39.9-39.5
			c0-14.2-7.7-27.3-20.1-34.3l-2.1,3l-1-0.7l2.8-3.8l0.4,0.3c13,7.1,21.1,20.7,21.2,35.6c0,22.4-18.4,40.6-41.1,40.6
			C386.3,412.8,377.1,409.5,369.7,403.4z"/>
		<rect x="378.4" y="428.5" class="st7" width="36.4" height="2.8"/>
	</g>
</g>
</svg>
